<svg height="244pt" preserveAspectRatio="xMidYMid meet" viewBox="0 0 250 244" width="250pt" xmlns="http://www.w3.org/2000/svg"><g transform="matrix(.1 0 0 -.1 0 244)"><path d="m1235 2422c-11-4-47-27-80-51-61-45-73-55-112-91-13-11-25-20-29-20-5 0-145-109-154-120-3-4-72-58-155-120-82-62-213-163-290-225-77-61-185-144-239-185-122-92-176-141-176-162 0-8 9-26 19-40l20-24 1208 1c664 1 1211 3 1215 4 4 0 15 12 23 25 30 45 19 56-290 296-53 41-134 104-180 140s-124 97-174 135c-50 39-122 94-159 123s-76 59-87 68c-11 8-51 39-90 70-38 30-79 62-90 70s-48 37-83 64c-35 28-66 50-70 49s-16-4-27-7zm58-164c23-18 64-51 92-73s66-51 85-65 48-37 64-51c17-14 63-50 102-80s146-112 238-184c93-71 196-151 230-177 33-26 69-54 78-62s28-22 43-32c14-9 22-20 17-23-8-5-1879-6-1976-2-18 1 73 76 353 290 75 57 199 154 276 216 77 61 184 144 238 184 53 41 100 77 103 82 8 13 12 12 57-23z"/><path d="m1140 2109c-47-38-110-88-140-111-161-122-438-348-444-363-12-31-6-54 17-69 18-11 132-13 685-12 651 1 664 1 678 21 30 41 15 65-101 157-60 48-117 93-125 100-24 21-341 271-394 312-26 20-57 36-69 36-12-1-60-32-107-71zm171-116c34-27 123-97 199-158 76-60 153-121 170-135l32-25h-461c-253 0-461 2-461 5 1 3 26 23 57 45s133 102 227 177 172 137 174 137c1 1 30-20 63-46z"/><path d="m163 1270c-22-9-40-60-28-80 11-17 66-42 81-36 12 5 14-42 14-304v-310h-35c-64 0-87-88-28-111 13-5 136-9 273-9h249l20 26c12 15 21 35 21 45 0 26-49 61-77 54l-23-5 2 307c3 265 5 308 18 309 34 2 41 5 60 24 26 26 25 54-1 79-21 19-35 20-273 19-138 0-261-4-273-8zm347-419v-306h-80-80v306 305h80 80z"/><path d="m973 1270c-22-9-40-60-28-80 11-17 66-42 81-36 12 5 14-42 14-304v-310h-35c-64 0-87-88-28-111 13-5 136-9 273-9h249l20 26c12 15 21 35 21 45 0 26-49 61-77 54l-23-5 2 307c3 265 5 308 18 309 34 2 41 5 60 24 26 26 25 54-1 79-21 19-35 20-273 19-138 0-261-4-273-8zm347-419v-306h-80-80v306 305h80 80z"/><path d="m1863 1270c-22-9-40-60-28-80 11-17 66-42 81-36 12 5 14-42 14-304v-310h-35c-64 0-87-88-28-111 13-5 136-9 273-9h249l20 26c12 15 21 35 21 45 0 26-49 61-77 54l-23-5 2 307c3 265 5 308 18 309 34 2 41 5 60 24 26 26 25 54-1 79-21 19-35 20-273 19-138 0-261-4-273-8zm347-419v-306h-80-80v306 305h80 80z"/><path d="m23 354c-28-28-29-44-2-78l20-26h1204c1131 0 1204 1 1223 17 11 10 23 30 26 45 5 22 1 31-21 45-26 17-94 18-1227 19h-1201z"/><path d="m20 130c-24-24-25-48-4-78l15-22h1218c933 0 1220 3 1229 12 7 7 12 29 12 50 0 32-4 40-26 48-16 6-470 10-1225 10-1186 0-1199 0-1219-20z"/></g></svg>