<svg height="250pt" preserveAspectRatio="xMidYMid meet" viewBox="0 0 250 250" width="250pt" xmlns="http://www.w3.org/2000/svg"><g transform="matrix(.1 0 0 -.1 0 250)"><path d="m624 2485c-285-62-503-264-594-550-33-106-39-274-11-387 62-259 220-446 469-552 45-20 82-34 82-32s28-4 63-13c65-18 208-21 281-6l39 8-8-39c-13-68-13-183 1-254 60-317 288-563 597-643 84-22 266-21 356 3 350 90 601 408 601 763 0 309-208 609-500 725-41 16-88 32-105 36-16 4-43 9-60 13-41 8-168 9-237 0l-57-7 10 32c16 58 10 217-11 308-73 303-292 520-604 597-49 12-254 11-312-2zm332-89c133-35 231-94 335-204 136-142 187-276 184-485-2-164-10-187-80-216-138-57-301-216-372-363-33-67-43-79-73-89-57-18-242-20-319-4-245 51-434 222-522 472-30 83-37 265-15 365 58 258 254 458 521 528 85 22 248 21 341-4zm900-930c182-23 390-175 481-351 56-109 75-187 78-320 2-133-14-212-65-320-121-256-369-402-661-390-115 5-184 22-289 72-81 39-108 58-180 132-137 138-189 261-196 462-5 136 10 225 55 323 98 216 278 350 536 399 25 5 186 0 241-7z"/><path d="m307 2022c-15-16-17-53-17-308 0-212 3-293 12-302s128-12 473-12c427 0 463 1 477 18 13 14 16 67 21 300 6 272 6 283-13 302s-36 20-478 20c-432 0-460-1-475-18zm883-107v-35h-405-405v35 35h405 405zm-2-272-3-157h-405l-405-1v158 157h408 408z"/><path d="m922 1704c-22-16-24-152-3-178 18-22 164-21 187 1 20 20 20 156-1 173-20 17-161 20-183 4z"/><path d="m408 1682c-11-21-10-26 8-41s44-16 199-14c175 3 205 9 205 38 0 34-30 40-216 40-183 1-183 0-196-23z"/><path d="m2026 1135c-19-20-13-36 22-58 26-16 17-17-213-18-361-2-387-4-421-22-45-23-84-73-84-107 0-33 42-87 79-101 38-15 313-84 381-95 69-12 194-49 206-62 22-22 14-64-16-79-18-9-103-13-320-13h-295l33 26c32 25 32 27 16 45-24 27-48 24-102-13-100-67-122-89-113-107 13-23 158-121 180-121 10 0 26 8 35 19 16 18 15 20-18 47l-34 29 307 2c286 1 311 3 347 21 46 24 69 47 84 86 22 59-42 134-133 154-334 76-496 114-514 122-30 13-32 65-4 80 12 6 132 10 323 10 289-1 302-1 276-17-15-10-30-23-32-30-7-16 20-43 43-43 24 0 186 113 186 130s-162 130-186 130c-10 0-24-7-33-15z"/></g></svg>