<svg height="223pt" preserveAspectRatio="xMidYMid meet" viewBox="0 0 250 223" width="250pt" xmlns="http://www.w3.org/2000/svg"><g transform="matrix(.1 0 0 -.1 0 223)"><path d="m485 2221c-30-13-71-54-91-92-17-30-19-65-22-294-2-143-4-261-5-261-1-1-55-4-119-7-137-5-172-21-216-95l-27-47-3-637c-2-618-2-639 17-676 23-44 81-99 114-107 12-3 481-4 1043-3l1021 3 36 28c21 16 47 47 58 70 20 39 21 56 23 364l1 323h30c39 0 86 29 121 76l29 37 3 581c2 320 0 596-3 615-4 22-23 50-55 82l-49 49-943-1c-519 0-952-4-963-8zm1870-76c47-9 65-38 65-106v-59h-984-984l2 53c3 62 17 91 54 112 24 14 123 15 922 11 492-3 909-8 925-11zm65-837c-1-302-3-387-14-400-11-15-85-54-87-46 0 2-2 127-3 278-3 254-5 278-24 315-21 42-47 69-96 100-28 17-52 18-414 11-211-4-594-4-853 0l-469 7v59 58h980 980zm-219 146 31-31v-644l-1-644-30-27-31-28h-1014-1014l-32 31-31 31 3 643 3 643 24 26c22 24 31 26 130 29 58 2 517 3 1018 3l913-1z"/><path d="m275 1325c-24-23-25-27-22-164 2-119 5-143 20-158 16-16 42-18 250-19 128-1 247 1 265 3 50 8 58 36 57 190 0 113-3 135-18 150-16 16-44 18-273 20l-255 3z"/><path d="m272 844c-20-5-23-11-20-42l3-37 178-3 177-2v40 40h-53c-30 0-101 2-158 4-57 3-114 2-127 0z"/><path d="m1225 832c-3-7-5-27-5-43v-29l178 2 177 3 3 38 3 37-88 2c-236 6-262 5-268-10z"/><path d="m1714 836c-3-8-4-27-2-43l3-28 171-3 172-2 6 24c11 46 1 53-96 60-156 11-248 8-254-8z"/><path d="m740 800v-40h175 175v40 40h-175-175z"/><path d="m1590 611c-125-38-202-145-186-259 7-53 25-88 67-130 65-66 154-88 232-58 39 15 48 15 87 1 60-21 107-19 165 9 119 55 170 183 118 296-52 117-178 172-288 126-28-12-39-12-86 5-59 20-71 21-109 10zm346-97c72-34 100-122 63-200-24-51-83-87-137-83-52 4-53 6-33 42 38 66 44 102 26 160-10 28-21 56-26 62-33 36 43 49 107 19z"/></g></svg>