<svg height="196pt" preserveAspectRatio="xMidYMid meet" viewBox="0 0 250 196" width="250pt" xmlns="http://www.w3.org/2000/svg"><g transform="matrix(.1 0 0 -.1 0 196)"><path d="m765 1940c-370-95-637-356-741-726-10-37-18-114-21-202-5-123-2-156 17-239 41-177 118-324 238-453 134-145 303-245 496-294 88-22 117-24 245-22 213 4 331 44 331 110 0 34-30 66-65 67-16 1-61-6-100-16-69-17-278-25-321-12-10 4-35 9-54 12-193 31-410 184-526 371-118 189-153 403-104 637 56 274 296 530 567 608 99 28 137 33 260 32 304-2 561-151 717-417 62-103 81-121 118-107 61 23 64 64 13 158-121 221-330 393-575 471-102 33-116 34-275 37-118 2-165-1-220-15z"/><path d="m927 1572c-9-10-20-40-23-65-6-41-10-48-33-53-45-9-87-31-126-66-97-85-100-233-5-325 33-32 128-83 155-83 7 0 16-4 19-9 3-4 20-11 37-15 50-10 158-65 170-87 28-53 13-116-34-145-25-15-50-19-117-19-94 1-103 4-202 77-41 30-73 47-80 42-31-17-58-49-58-67 0-57 97-140 206-177 54-19 62-25 68-52 3-16 3-34 0-40-9-15 37-58 61-58 38 0 62 38 64 101 1 23 8 28 68 44 57 16 76 27 118 69 81 81 97 178 48 277-38 74-86 107-257 173-178 70-207 98-175 169 36 78 189 79 306 2 29-19 61-35 71-35 23 0 62 40 62 64 0 58-74 120-180 152-52 15-60 21-61 43-1 14-2 31-4 36-1 6-3 15-3 22-6 40-67 56-95 25z"/><path d="m1793 1135c-164-45-305-159-377-307-51-104-65-167-61-273 5-153 59-273 174-385 158-156 360-208 559-145 298 94 471 400 392 692-51 188-193 343-372 404-80 27-240 34-315 14zm290-155c121-45 223-156 261-285 17-55 13-208-7-261-65-175-212-284-387-286-144-2-238 31-320 111-94 91-133 185-132 316 0 140 34 218 136 318 81 78 180 113 312 110 53-1 99-9 137-23z"/><path d="m1865 824c-51-19-93-58-117-113-11-24-32-54-47-67l-26-24 23-19c27-24 27-28 1-50-18-15-20-21-10-39 6-12 18-22 25-22s21-19 30-43c45-118 189-164 313-102 63 32 92 68 76 94-17 26-41 25-81-6-32-24-46-28-105-28-65 0-70 2-98 33-38 42-37 52 9 53 60 2 64 3 76 21 17 28-11 48-74 51-67 3-65 22 2 22 58 0 86 22 69 53-9 16-20 20-61 19-55-2-58 2-33 44 36 61 138 71 209 20 52-36 56-37 79-12 16 19 16 21-5 51-46 64-168 95-255 64z"/></g></svg>