<svg height="400pt" preserveAspectRatio="xMidYMid meet" viewBox="0 0 626 400" width="626pt" xmlns="http://www.w3.org/2000/svg"><g transform="matrix(.1 0 0 -.1 0 400)"><path d="m358 3990c-166-20-308-151-347-321-14-61-14-3277 0-3338 27-119 113-230 219-283 30-15 87-32 125-38 94-13 5441-13 5545 0 172 23 310 149 349 321 14 61 14 3277 0 3338-18 78-57 148-112 203-75 74-143 106-248 118-101 12-5431 11-5531 0zm5581-220c21-10 50-33 64-50 60-70 57 12 57-1715 0-1397-2-1588-16-1640-17-68-50-109-109-136-39-18-135-19-2805-19-2661 0-2767 1-2805 19-23 10-53 33-68 50-60 72-58-15-55 1742l3 1604 21 45c23 48 51 78 99 103 27 15 294 16 2803 17 2733 0 2773 0 2811-20z"/><path d="m4783 3446c-40-13-84-31-98-40-30-20-44-20-81-2-89 45-254 59-371 31-179-42-340-190-401-370-34-97-35-250-5-347 78-243 288-399 538-399 106-1 161 10 249 51l65 29 63-23c101-38 192-48 285-32 191 33 330 130 425 296 56 98 78 278 49 400-23 93-76 186-149 259-119 118-215 160-387 166-96 4-119 2-182-19zm288-90c154-47 267-153 320-302 16-44 22-82 22-149 0-210-124-379-329-449-94-32-301-13-298 27 1 13-7 17-40 17-36 0-48 6-84 43-23 23-42 46-42 50s56 7 123 7c123 0 124 0 135 25 7 14 12 28 12 30 0 3-72 5-160 5h-159l-16 30c-8 16-15 38-15 50 0 19 5 20 194 20 192 0 194 0 200 23 13 48 19 47-208 47h-214l-4 34c-2 19-2 39 0 45 3 8 70 11 218 11h215l-3 33-3 32-209 3-209 2 6 36c11 64 11 64 203 64 96 0 174 2 174 5 0 4-7 19-15 35l-15 29-146 3-146 3 32 40c31 40 33 40 111 45l80 5-30 33-30 33 27 11c101 40 218 50 303 24z"/><path d="m817 2953c-62-21-141-92-173-154-13-27-24-51-24-54s59-5 130-5h130v115c0 63-3 115-7 114-5 0-30-7-56-16z"/><path d="m990 2680v-291l103 3 102 3 3 173 2 172h181 180l-6 23c-22 72-80 138-159 180-37 20-58 22-223 25l-183 4z"/><path d="m610 2510v-120h135 135v120 120h-135-135z"/><path d="m1300 2510v-120h135 135v120 120h-135-135z"/><path d="m637 2284c-12-12 31-80 77-122 47-43 74-58 134-72l32-8v104 104h-118c-65 0-121-3-125-6z"/><path d="m990 2185v-106l103 3 102 3v100 100l-102 3-103 3z"/><path d="m1304 2277c-3-8-4-54-2-103 3-89 3-89 28-86 70 10 156 72 201 146 33 54 30 56-101 56-91 0-122-3-126-13z"/><path d="m568 1644c-40-21-60-76-60-165-1-88 21-145 62-167 32-16 105-10 129 12 39 35 54 174 29 259-20 67-96 96-160 61zm91-62c10-18 16-93 13-154-3-49-34-83-62-68-39 21-52 161-20 219 13 26 56 28 69 3z"/><path d="m890 1646c0-20-39-46-67-46-18 0-23-6-23-25 0-22 4-25 40-25h40v-120-120h35 35v175 175h-30c-19 0-30-5-30-14z"/><path d="m1118 1644c-28-15-58-61-58-89 0-11 10-15 35-15 27 0 35 4 35 18 0 24 19 42 45 42 28 0 45-18 45-48 0-35-14-55-61-88-51-35-99-98-99-131 0-23 1-23 115-23h115v30 30h-70c-38 0-70 3-70 8 0 4 26 25 56 47 62 44 84 78 84 127 0 43-24 76-66 94s-72 17-106-2z"/><path d="m1402 1650c-32-14-61-50-62-77 0-18 6-23 28-23 19 0 30 7 37 23 14 31 71 37 80 8 10-34-4-61-36-68-41-8-41-48 0-56 52-11 65-73 20-98-28-14-58-2-65 27-5 19-12 24-40 24-43 0-46-26-6-70 34-39 91-49 145-26 65 27 85 117 36 162-18 16-18 18-2 36 25 27 20 85-9 114-26 26-91 39-126 24z"/><path d="m2498 1643c-40-25-61-82-62-166-1-129 49-189 143-171 35 7 50 16 68 43 28 42 30 95 3 138-22 37-54 48-110 39-44-7-48-1-25 43 18 36 49 45 71 20 18-20 74-26 74-8 0 38-56 79-107 79-15 0-40-8-55-17z"/><path d="m3333 1649c-57-17-79-74-49-129 13-22 12-28-5-51-28-40-25-100 7-132 96-96 266 14 192 123-23 33-23 36-7 68 40 78-42 150-138 121z"/><path d="m3605 1651c-29-12-54-44-65-81-26-90 55-173 133-135 26 13 27 13 27-14s-31-71-50-71c-6 0-18 9-27 20-17 19-62 27-76 14-11-11 24-61 50-73 62-29 132 0 159 65 8 19 14 68 14 112 0 66-4 85-23 113-35 53-89 71-142 50z"/><path d="m3909 1630c-17-19-36-30-53-30-21 0-26-5-26-25 0-22 4-25 40-25h40v-120-120h35 35v175c0 175 0 175-22 175-13-1-35-14-49-30z"/><path d="m4155 1651c-30-13-54-44-61-79-6-30-5-32 24-32 24 0 34 6 44 28 24 49 88 38 88-17-1-32-10-44-79-101-50-41-81-89-81-125 0-13 18-15 115-15h115v30 30h-70c-38 0-70 3-70 8 1 4 23 23 51 42 83 58 112 133 73 189-29 41-101 61-149 42z"/><path d="m4705 1651c-28-12-51-41-59-73-6-26-4-28 22-28 21 0 32 7 40 25 16 36 69 36 78 0 9-37-2-55-36-62-43-8-37-41 10-57 29-9 36-16 38-43 6-61-75-81-93-23-5 15-15 20-40 20-33 0-33 0-24-32 23-83 135-104 201-38 35 35 39 95 8 128-24 25-24 29-5 48 18 18 20 67 4 96-20 37-97 58-144 39z"/><path d="m5523 1640c-40-27-57-75-58-165 0-127 50-187 141-169 39 7 53 16 71 43 39 58 25 139-28 167-33 17-73 18-100 4-15-9-19-7-19 7 1 57 58 97 88 63 19-23 72-27 72-6 0 8-10 27-23 41-32 37-99 44-144 15z"/><path d="m1942 1545c-46-75-62-112-60-132 3-30 1-29 96-32 41-1 42-2 42-36 0-32 2-35 30-35 27 0 30 3 30 30 0 19 7 33 20 40 11 6 20 19 20 30 0 10-9 22-20 25-18 6-20 15-20 111v104h-38c-37 0-38-1-100-105z"/><path d="m2181 1575c-17-116-17-118 22-112 17 3 45 9 61 13 22 5 32 3 43-11 19-27 16-79-5-98-26-24-49-21-68 8-21 33-74 36-74 5 0-30 42-68 82-75 84-16 148 37 148 120 0 74-63 123-132 104-25-7-28-5-28 16 0 50 8 55 81 55 67 0 69 1 69 25 0 25 0 25-94 25h-94z"/><path d="m2710 1620v-30h80c44 0 80-3 80-6s-11-20-25-37c-29-40-82-161-87-202-3-28-1-30 32-30 32 0 35 2 42 40 11 65 36 124 78 187 22 33 40 71 40 84 0 24 0 24-120 24h-120z"/><path d="m5004 1603c-15-27-40-68-56-93-32-49-42-79-36-107 3-15 14-18 58-20 30-1 61-2 68-2 7-1 12-15 12-36 0-32 2-35 30-35 27 0 30 3 30 34 0 25 5 35 20 39 12 3 20 14 20 27s-8 24-20 27c-18 5-20 14-20 109v104h-40c-36 0-41-3-66-47z"/><path d="m5216 1623c-3-16-8-58-12-95l-6-68h30c17 0 34 5 37 10 11 18 64 11 75-9 16-30 12-76-8-94-26-24-49-21-68 8-12 18-25 25-50 25-33 0-33 0-22-31 12-36 61-69 101-69 75 0 127 52 127 127 0 71-64 122-129 103-33-9-38-1-25 48 6 20 12 22 75 22 67 0 69 1 69 25 0 25 0 25-94 25h-94z"/><path d="m610 645v-155h30 30v102c0 119 0 119 75-9 46-79 55-88 83-91l32-3v156 156l-27-3-28-3-5-99-5-100-46 80c-26 43-52 89-58 102-9 16-21 22-46 22h-35z"/><path d="m2040 645v-155h110 110v25c0 25-1 25-80 25h-80v130 130h-30-30z"/><path d="m2790 745c0-24-5-35-15-35-8 0-15-7-15-15 0-9 7-18 15-21 12-5 15-24 15-84 0-91 13-107 78-101 17 2 15 41-3 41-12 0-15 14-15 70s3 70 15 70c8 0 15 9 15 20s-7 20-15 20c-10 0-15 11-15 35 0 32-2 35-30 35s-30-3-30-35z"/><path d="m955 708c-23-13-35-28-35-45s35-16 63 1c15 10 29 11 45 5 36-14 21-32-39-47s-79-32-79-74c0-57 68-87 118-52 12 8 22 10 22 5 0-6 15-11 33-11h32l-5 96c-5 85-9 99-29 115-26 21-94 25-126 7z"/><path d="m1160 605v-115h30 30v78c0 80 9 102 42 102 27 0 38-32 38-109 0-69 1-71 25-71s25 2 25 65c0 83 15 117 49 113 25-3 26-5 29-90l3-88h29 30v95c0 84-2 96-22 115-26 24-65 26-96 4-21-15-25-15-41 0-22 20-75 21-92 0-11-14-13-14-21 0-5 9-20 16-33 16h-25z"/><path d="m1568 691c-30-27-33-34-33-89 0-45 5-66 19-81 25-27 79-44 116-36 31 7 80 41 80 56 0 12-57 12-65-1-11-17-61-11-79 9-29 31-11 41 75 41 73 0 79 2 79 20 0 29-26 76-52 94-38 27-103 21-140-13z"/><path d="m2316 697c-14-15-26-31-26-37 0-15 52-12 73 4 23 18 57 9 57-14 0-13-11-19-45-24-82-13-119-73-71-120 29-30 62-33 96-9 17 12 25 13 28 5 2-7 16-12 30-12h27l-3 97c-3 65-8 103-17 112-8 8-39 16-69 19-48 4-57 2-80-21z"/><path d="m2556 695c-30-28-34-65-8-88 9-8 40-22 67-30 51-14 72-42 38-49-30-6-63 3-63 18 0 9-11 14-30 14-40 0-41-31-1-59 37-27 96-27 139-1 26 16 32 26 32 54 0 41-12 52-81 74-59 19-73 38-34 48 17 4 32 1 44-10 22-20 61-21 61-1 0 55-114 77-164 30z"/><path d="m3050 605c0-114 0-115 24-115 22 0 24 4 28 75 6 83 19 107 57 103 25-3 26-5 29-90l3-88h29 30v95c0 82-3 98-20 115-26 26-95 28-109 3-9-17-10-17-16 0-4 9-18 17-31 17-24 0-24 0-24-115z"/><path d="m3324 688-27-33 26-3c14-2 37 4 51 13 20 13 29 14 46 5 32-17 20-32-40-47-63-15-80-33-80-79 0-56 63-82 114-48 16 10 26 12 31 5 3-6 18-11 33-11h27l-5 96c-6 115-20 134-100 134-42 0-52-4-76-32z"/><path d="m3557 713c-4-3-7-55-7-115v-108h30 30v73c0 79 14 112 45 106 24-5 33-36 34-116 1-60 2-63 26-63s25 3 26 63c1 93 9 112 44 112h30l3-87 3-88h29 30v93c0 85-2 96-23 115-28 26-64 28-95 6-21-15-25-15-41 0-22 20-60 21-88 1-19-13-22-13-27 0-5 15-37 20-49 8z"/><path d="m3967 699c-61-47-58-160 6-200 42-26 108-21 143 12 13 12 24 26 24 31 0 12-58 10-65-2-12-19-63-11-79 12-22 31-7 38 83 38h74l-7 32c-3 18-13 43-22 55-29 46-113 58-157 22z"/></g></svg>