<svg height="86pt" preserveAspectRatio="xMidYMid meet" viewBox="0 0 71 86" width="71pt" xmlns="http://www.w3.org/2000/svg"><g transform="matrix(.1 0 0 -.1 0 86)"><path d="m335 853c-11-2-30-9-42-15s-31-8-42-5c-12 3-19 1-16-3 3-5-4-11-15-15-33-10-47-45-54-127-4-58-2-77 8-81 7-3 12-20 11-41 0-19 1-33 4-31 2 2 17-15 33-39 33-51 85-80 124-70 40 10 101 77 115 126 7 24 16 48 20 54 5 6 7 62 6 125-2 96-5 114-19 117-9 2-19-2-23-8-11-18 3-24 22-9 17 13 17 13 3-5-11-15-12-20-2-23 6-3 12-10 12-16s-10-1-23 11-37 25-55 28c-17 4-29 10-26 15s-3 6-12 2c-12-4-15-3-10 5 4 7 6 11 4 11-2-1-12-3-23-6zm83-79c14-9 22-24 22-43v-29l-37 14c-21 7-56 13-78 13s-57-6-77-13l-38-14v28c0 15 7 33 15 40 38 31 147 33 193 4zm-27-166c43-12 44-14 28-55-17-47-59-83-95-83-32 0-60 20-46 35 4 5 2 5-5 1-15-8-47 49-39 70 5 12 2 12-15 3-11-6-23-8-27-5-7 8-6 8 48 28 56 19 101 21 151 6z"/><path d="m441 439c-14-5-46-25-72-44s-49-31-51-26c-2 4-24 22-50 39l-48 33-62-17c-129-33-145-57-150-224-3-113-3-115 19-116 12-1 21 2 19 5s0 60 5 125c6 81 13 124 23 134 8 8 43 22 77 32 62 17 64 17 91-3 21-16 25-23 16-34s-13-10-25 7c-15 21-53 28-53 9 0-16 53-79 67-79 7 0 24 15 38 34s32 33 41 32c8-1 30-18 50-37l35-34 30 33c16 18 29 39 29 47 0 21-30 19-46-2-9-13-16-15-24-7-9 9-5 17 14 32 26 20 27 20 87 2 71-22 99-44 99-77 0-16 6-23 20-23 34 0 26 56-14 96-18 18-31 36-27 40 3 4 1 4-6 1-16-10-114 13-107 24 6 11 6 11-25-2z"/><path d="m432 238c-7-7-12-17-12-23 0-5-10-15-22-20-21-9-23-18-26-88-2-50 1-84 9-93 9-11 40-14 128-14 121 0 141 6 141 42 0 11 7 18 18 18 32 0 42 22 42 95 0 42-5 76-12 83-17 17-249 17-266 0zm198-138v-70h-120-120v70 70h120 120z"/></g></svg>