<svg height="188pt" preserveAspectRatio="xMidYMid meet" viewBox="0 0 177 188" width="177pt" xmlns="http://www.w3.org/2000/svg"><g transform="matrix(.1 0 0 -.1 0 188)"><path d="m975 1863c-44-23-65-44-86-85-25-49-25-100 1-123 31-28 64-8 78 47 22 85 14 83 348 83h294l27-28 28-27 3-233c2-206 1-236-15-267-27-53-56-59-313-60h-225l-82-111c-46-60-83-119-83-129 0-24 41-53 63-44 9 3 48 48 87 100l70 94h227c224 0 227 0 270 25 29 17 53 43 73 78l30 52v243c0 227-1 245-21 285-28 55-46 75-91 98-34 17-62 19-345 19-261-1-313-3-338-17z"/><path d="m1428 1678c-9-7-48-69-88-136l-72-124-34 51c-35 52-66 65-92 39-20-20-14-49 29-122 68-115 98-138 131-98 32 37 198 332 198 351 0 22-25 51-44 51-7 0-19-6-28-12z"/><path d="m500 1641c-104-32-210-128-251-226-14-34-29-55-39-55-28 0-40-22-40-73 0-58 14-87 40-87 12 0 20-7 20-17 0-33 57-138 98-180 147-151 375-160 527-21 61 55 96 109 116 176 7 23 18 42 25 42 22 0 44 43 44 85 0 48-7 61-41 73-17 7-29 23-38 50-30 90-126 184-226 221-58 22-182 28-235 12zm210-109 45-16-42-18c-44-19-127-25-180-14-59 13-86-64-33-92 17-8 55-12 115-10 78 3 100 7 153 34l62 31 19-31c85-138 23-342-123-407-145-64-301-9-374 131-32 61-34 70-30 140 12 206 192 323 388 252z"/><path d="m335 786c-22-7-51-18-63-25-36-19-99-79-121-114-19-31-151-556-151-601 0-43 13-46 230-46 216 0 230 3 230 45 0 41-16 45-188 45h-164l7 33c4 17 31 131 61 251 48 198 57 223 86 253 34 35 79 60 128 69 25 5 37 2 58-19 87-81 242-80 316 2 22 24 34 25 87 9 45-13 117-71 129-103 8-20 120-479 120-490 0-3-73-5-163-5-171 0-187-4-187-45 0-42 14-45 230-45 217 0 230 3 230 46 0 35-128 552-146 589-21 46-95 112-152 137-26 12-76 23-112 26-66 4-66 4-93-31-54-71-150-71-203-1-24 31-31 34-78 33-28 0-69-6-91-13z"/></g></svg>