<svg height="250pt" preserveAspectRatio="xMidYMid meet" viewBox="0 0 250 250" width="250pt" xmlns="http://www.w3.org/2000/svg"><g transform="matrix(.1 0 0 -.1 0 250)"><path d="m695 2485c-236-67-431-271-480-501-37-174 5-385 102-512 21-28 24-38 15-51-130-183-191-383-178-586 19-328 206-608 499-750 129-62 190-76 352-82 120-4 153-2 229 16 271 65 485 239 605 492 44 92 68 173 78 261l6 57 66 38c93 53 227 189 273 278 64 124 83 202 82 345 0 106-4 137-26 202-82 248-283 432-533 488-63 14-226 15-285 1-63-15-64-15-85 22-31 53-133 153-201 197-108 71-188 94-339 97-89 1-146-2-180-12zm268-110c132-28 246-96 323-194l43-55-72-46c-87-56-192-167-236-249-30-58-33-60-79-66-189-26-375-109-488-217l-32-30-26 45c-69 117-94 281-62 407 52 206 211 360 416 404 85 19 130 19 213 1zm840-322c185-55 342-205 398-381 29-93 36-238 15-322-36-143-127-279-238-353l-52-35-19 92c-19 97-64 211-119 304-46 79-199 228-283 278-118 69-259 119-357 126-16 1-28 5-28 9s20 34 45 67c89 121 243 212 400 236 49 7 183-4 238-21zm-548-433c134-42 221-96 326-200 84-83 102-108 142-190 62-130 81-210 80-345 0-132-19-217-72-329-97-206-279-359-498-418-119-31-289-29-408 7-142 42-216 87-325 195-106 105-158 191-202 330-20 64-23 96-23 215 1 132 3 146 33 235 93 269 297 453 572 515 95 21 284 14 375-15z"/><path d="m1010 1365c0-31-3-35-25-35-86 0-209-88-233-166-44-148 27-266 189-315l69-21v-109c0-100-2-109-19-109-29 0-91 29-145 67-55 40-42 45-111-42l-29-38 34-29c50-42 144-86 211-100l59-12v-43-43h40 40v45c0 41 2 45 25 45 34 0 120 34 166 66 52 36 89 111 89 181 0 122-76 206-222 248l-58 16v110c0 60 1 109 3 109 18-1 107-34 132-50 18-11 35-20 38-20 9 0 86 113 82 120-11 17-143 73-196 83-58 11-59 12-59 44s-1 33-40 33-40-1-40-35zm0-274v-100l-29 10c-91 32-109 132-31 171 59 30 60 28 60-81zm178-337c31-36 29-79-7-115-16-16-36-29-44-29-9 0-22-3-31-6-14-5-16 7-16 100v106l38-15c20-8 47-27 60-41z"/></g></svg>