<svg height="88pt" preserveAspectRatio="xMidYMid meet" viewBox="0 0 95 88" width="95pt" xmlns="http://www.w3.org/2000/svg"><g transform="matrix(.1 0 0 -.1 0 88)"><path d="m148 863c-2-10-4-136-3-280l1-262-24-6c-12-3-28-3-35 1s-9 4-5-1c7-8-49-60-66-60-5 0-11-7-13-15-4-13-3-13 6 0 7 9 11 10 11 3 0-6-5-15-10-18-15-9-12-102 5-135 20-39 62-67 119-80 66-15 115 0 159 49 20 22 39 36 43 33 4-4 4-2 1 5-4 6-4 18-1 27 5 14 41 16 310 16h304v370 370h-399c-371 0-399-1-403-17zm762-68v-45h-360-360v45 45h360 360zm0-274v-180l-92-80-93-81h-192c-156 0-193 3-193 13 0 31-59 95-104 113l-46 19v188 187h360 360zm-664-266c33-21 57-78 49-116-4-15-22-42-41-59-85-74-228-9-211 97 7 40 20 59 62 85 36 23 101 20 141-7z"/><path d="m628 613-58-4v-69-69l68-3 67-3 3-57c3-54 2-58-22-64-32-8-60 2-50 17 4 8 3 9-4 5s-12-2-12 3c0 21-47 12-53-10-3-12-3-18 0-15 4 3 12-3 20-14 16-22 67-38 100-32 12 2 34 15 48 28 21 20 25 32 25 82 0 73-25 102-93 109-38 5-46 9-50 29-4 24-3 24 69 24s74 1 74 25c0 27 7 26-132 18z"/><path d="m392 559c-47-45-50-52-37-66 14-14 18-14 35 2 20 18 20 17 20-68 0-86 0-87-25-87-18 0-25-5-25-20 0-18 7-20 73-21 39 0 84-2 99-4 22-3 25-1 15 10-6 7-15 11-19 8-5-2-8 3-8 11 0 11-9 16-30 16h-30l-1 113c-1 61-4 122-7 134-7 21-10 19-60-28z"/></g></svg>