<svg height="250pt" preserveAspectRatio="xMidYMid meet" viewBox="0 0 250 250" width="250pt" xmlns="http://www.w3.org/2000/svg"><g transform="matrix(.1 0 0 -.1 0 250)"><path d="m250 2295v-205h-50-50v-60-60h50 50v-95-95h-50-50v-60-60h50 50v-100-100h-50-50v-55-55h50 50v-100-100h-50-50v-55-55h50 50v-100-100h-50-50v-60-60h50 50v-95-95h-50-50v-60-60h50 50v-205-205h945 945v229 228l55 6c71 7 137 45 173 99l27 42 3 735 3 735-26 52c-15 31-40 62-63 77-39 27-132 53-157 43-13-5-15 15-15 124v130h-945-945zm1780-1045v-1140h-830-830v150 150h50 50v60 60h-50-50v95 95h50 50v60 60h-50-50v100 100h50 50v55 55h-50-50v100 100h50 50v55 55h-50-50v100 100h50 50v60 60h-50-50v95 95h50 50v60 60h-50-50v150 150h830 830zm222 851 33-29 4-121 3-121h-76-76v150 150h40c30 0 48-7 72-29zm38-541v-150h-75-75v150 150h75 75zm0-409v-149l-75-4-75-3v153 152h75 75zm-2-388c-4-125-13-153-55-172-13-6-39-11-58-11h-35v150 150h76 76z"/><path d="m880 1825v-265h370 370v265 265h-370-370zm620-5v-150h-250-250v150 150h250 250z"/></g></svg>