<svg height="512pt" preserveAspectRatio="xMidYMid meet" viewBox="0 0 512 512" width="512pt" xmlns="http://www.w3.org/2000/svg"><g transform="matrix(.1 0 0 -.1 0 512)"><path d="m2480 4890c-139-18-294-100-385-203-25-29-64-88-86-132-66-133-69-162-69-672v-452l-722-3c-716-3-724-3-788-25-185-64-333-206-403-390l-22-58-3-832c-3-928-5-890 66-1028 51-99 163-208 263-258 139-68 111-67 1142-67h928l279-256c153-141 288-263 300-271 27-19 101-21 133-4 15 8 36 33 47 56 19 40 20 60 20 811 0 726-1 771-18 803-35 65-118 89-179 51-72-43-68-6-71-688l-3-613-182 168c-100 93-191 175-201 183-17 13-151 16-1000 20l-981 5-59 24c-102 41-187 137-215 241-9 34-11 241-9 820l3 775 27 57c51 110 156 188 279 208 39 6 316 10 717 10h652v-680c0-736-1-724 54-767 36-29 88-37 129-20 18 8 163 132 321 276l287 261h938c806 0 945 2 996 15 213 55 383 226 439 442 23 90 24 1647 1 1738-53 209-217 378-430 441-56 17-132 18-1100 20-572 1-1065-2-1095-6zm2125-273c105-33 177-96 224-196l26-56v-800-800l-27-57c-34-73-103-142-176-176l-57-27-970-5-970-5-45-24c-45-23-107-75-291-243-53-48-99-88-103-88-3 0-5 503-4 1118l3 1117 24 49c44 89 102 142 200 182l56 24h1035c806 0 1044-3 1075-13z"/><path d="m3470 4168c-110-17-223-101-274-202-14-28-30-82-36-120-10-62-9-72 10-111 48-99 182-100 230-1 11 23 20 53 20 65 0 55 60 111 120 111s129-74 116-125c-3-12-55-68-116-125-79-74-116-116-135-155-33-68-37-146-10-193 24-40 89-67 139-58 44 8 92 56 101 98 5 24 37 62 119 143 130 127 156 173 164 280 16 244-199 433-448 393z"/><path d="m3425 3107c-108-108 12-281 146-212 120 63 73 245-63 245-43 0-55-5-83-33z"/><path d="m891 2243c-64-32-88-108-56-177 20-43 63-66 120-66 81 0 135 50 135 127 0 102-104 163-199 116z"/><path d="m1331 2242c-120-65-75-242 61-242 86 0 138 49 138 130 0 101-108 161-199 112z"/></g></svg>