<svg height="250pt" preserveAspectRatio="xMidYMid meet" viewBox="0 0 125 250" width="125pt" xmlns="http://www.w3.org/2000/svg"><g transform="matrix(.1 0 0 -.1 0 250)"><path d="m540 2479c-145-65-206-235-135-374 83-163 287-205 424-88 194 166 77 483-179 483-44 0-80-7-110-21zm179-114c43-22 78-69 86-115 5-32 2-50-17-87-29-60-64-85-125-90-96-8-163 56-163 157 0 64 19 98 74 131 37 23 106 25 145 4z"/><path d="m340 1896c-128-28-240-118-301-241l-34-70-3-351-3-351 78-33 79-32 29-409 29-409h217 218l5 32c3 18 21 256 41 528 19 272 38 525 41 562l7 68 89-153c89-150 90-153 89-214l-2-63h60 60l3 48c3 43 5 47 31 50 58 7 57 18 57-439v-419h60 60v434 433l-25 37c-14 20-25 48-25 62 0 27-321 667-371 741-61 89-178 163-298 189-79 16-118 16-191 0zm158-116c71-13 134-45 190-95 42-38 69-84 214-372l167-329-34 4c-19 2-38 9-44 16-12 14-301 504-315 533-19 39-36 27-36-24 0-45-70-1020-90-1253-5-63-10-121-10-127 0-10-28-13-105-13h-104l-5 33c-3 17-17 191-30 385-14 194-27 356-30 360-2 4-39 21-81 37l-77 30 4 285 4 285 27 60c45 97 111 153 210 180 64 17 81 18 145 5z"/></g></svg>