<svg height="512pt" preserveAspectRatio="xMidYMid meet" viewBox="0 0 512 512" width="512pt" xmlns="http://www.w3.org/2000/svg"><g transform="matrix(.1 0 0 -.1 0 512)"><path d="m929 4435c-483-382-771-618-783-638-17-29-18-36-5-62 24-50 45-55 272-55h207v-910-910h-93c-111 0-99 10-235-187-100-145-112-182-71-219 21-19 59-19 1484-19s1463 0 1484 19c38 35 28 68-66 204-47 70-100 144-116 165l-29 37h-94-94v915 915h215c216 0 216 0 240 25 34 33 33 77-2 114-34 35-1469 1183-1500 1199-12 7-28 12-36 12s-358-272-778-605zm1403-71c343-273 627-501 633-505 5-5-542-9-1258-9h-1268l632 505c348 278 633 505 635 505s284-223 626-496zm-1042-1584v-910h-255-255v910 910h255 255zm680 0v-910h-255-255v910 910h255 255zm670 0v-910h-255-255v910 910h255 255zm307-1128 41-57-639-3c-351-1-927-1-1279 0l-640 3 41 58 41 57h1196l1197-1z"/><path d="m2849 5024c-165-29-406-127-449-181-28-36-26-77 6-102 36-28 65-26 128 9 175 99 438 152 649 130 263-26 496-132 676-304 64-63 161-176 161-189 0-3-63-26-140-52-104-35-145-53-160-72-24-31-25-61-4-92 18-25 493-261 526-261 44 0 62 28 189 282 133 268 137 280 101 321-24 27-77 21-215-28-71-25-129-45-131-45-1 0-32 40-69 89-194 260-491 436-836 496-104 19-329 18-432-1zm1427-818c-32-58-59-106-61-106-3 0-52 23-110 52l-104 52 162 57c89 31 164 55 166 53 2-1-22-50-53-108z"/><path d="m4114 3770c-189-49-360-187-443-355-183-372 6-813 404-942 112-36 265-38 380-5 349 100 562 462 475 808-33 130-82 217-180 314-96 96-179 146-300 179-96 27-236 27-336 1zm327-164c211-73 359-275 359-491 0-280-240-516-524-515-205 1-399 136-476 330-98 249 13 532 255 651 129 63 251 71 386 25z"/><path d="m4260 3491c0-14-10-21-37-26-109-20-173-93-173-195 0-90 46-144 153-176l57-18v-89-89l-32 6c-18 3-57 21-87 40l-55 34-33-41c-32-38-33-41-17-58 23-25 111-68 171-83 46-12 48-14 51-49 3-34 6-37 33-37s29 3 29 35c0 30 4 35 28 41 127 27 192 93 192 194 0 89-47 144-155 180l-65 22v89c0 102-5 99 89 58 24-10 47-19 51-19s20 18 36 41c23 34 25 42 13 50-33 24-100 50-143 55-40 6-46 10-46 30s-5 24-30 24c-23 0-30-5-30-19z"/><path d="m4077 1849c-278-45-388-390-188-590 71-71 145-101 246-101s175 30 246 101 100 143 100 246c0 219-188 379-404 344zm105-159c50-14 97-55 119-105 69-151-76-316-232-263-84 28-132 95-132 183 0 133 116 220 245 185z"/><path d="m1186 1188c-17-16-58-106-125-275-56-138-101-259-101-268 0-20 53-75 73-75 7 0 78 27 157 60l143 59 20-27c50-65 195-204 266-255 426-307 985-335 1429-71 96 57 119 85 106 128-19 63-83 84-139 45-46-31-163-89-234-116-414-156-924-34-1230 293-35 37-59 70-54 75s64 31 133 59c68 27 132 57 142 66 24 22 24 86 1 106-24 19-517 218-542 218-11 0-31-10-45-22zm288-230c27-10 20-14-130-78-88-37-161-66-163-64s18 52 44 112l48 110 86-35c47-19 99-39 115-45z"/><path d="m3639 1062c-121-32-224-111-293-225-57-95-66-160-66-450 0-242 1-256 21-281l20-26h810c796 0 809 0 829 20 19 19 20 33 20 292 0 353-14 407-131 533-65 69-144 116-234 140-92 24-882 21-976-3zm975-162c69-26 134-83 171-151l30-54 3-232 3-233h-690-691v208c0 232 8 278 61 350 37 50 105 100 163 118 31 9 150 13 468 13 406 1 430 0 482-19z"/></g></svg>