<svg height="79pt" preserveAspectRatio="xMidYMid meet" viewBox="0 0 76 79" width="76pt" xmlns="http://www.w3.org/2000/svg"><g transform="matrix(.1 0 0 -.1 0 79)"><path d="m25 765-25-24v-349-349l23-21c22-21 32-22 214-22h191l26 31c23 27 26 39 26 110v79h118c170 0 162-10 162 200 0 104-4 171-10 175s-8 10-5 15c3 4-1 8-8 7-6 0-69 1-139 1l-128 2v63c0 53-4 67-23 85-22 21-32 22-211 22-185 0-187 0-211-25zm393-37c7-7 12-34 12-60v-48h-93c-86 0-95-2-116-24s-22-31-22-177c1-142 3-154 23-176 19-21 30-23 115-23h93v-69c0-108 14-101-191-101-162 0-179 2-188 18-14 26-15 627-1 652 10 19 22 20 183 20 121 0 177-4 185-12zm300-260 3-98h-238-238l3 100 3 100 232-2 232-3zm0-170-3-23-231-3-232-2-4 25-5 25h239 239z"/><path d="m83 693c-10-3-13-68-13-273v-268l27-7c37-9 323 6 323 17 0 5-4 6-10 3-5-3-10 1-10 9 0 14-20 16-140 16h-140v230 230h140c131 0 140 1 140 19 0 10-7 22-16 25-19 7-283 7-301-1z"/><path d="m513 553c4-6-2-18-13-28-26-24-27-80-1-102 11-9 18-21 17-27-2-6-1-8 1-3 3 4 34 7 69 7 51 0 68 4 84 20 27 27 26 77-2 107-16 17-18 22-6 18 9-4 19-1 23 5 6 9-4 10-36 5-51-9-116-8-131 2-6 3-8 1-5-4z"/><path d="m262 476v-61l82 5 81 5 3 49c2 32-1 52-10 58-7 4-45 8-84 7l-72-2z"/></g></svg>