<svg height="320pt" preserveAspectRatio="xMidYMid meet" viewBox="0 0 320 320" width="320pt" xmlns="http://www.w3.org/2000/svg"><g transform="matrix(.1 0 0 -.1 0 320)"><path d="m414 2760c-25-10-82-74-95-107-14-38-12-826 3-841 18-18 56-14 68 7 6 13 10 163 10 418 0 329 2 403 14 419 14 19 39 19 1135 22 1274 3 1181 9 1181-76 0-61 18-87 53-78 68 17 36 172-45 221-32 20-54 20-1168 22-624 1-1144-2-1156-7z"/><path d="m1006 2449-26-20v-295c0-281 1-295 20-314 20-20 33-20 570-20h550l14 23c12 18 15 75 16 312 2 277 1 291-18 312l-20 23h-540c-530 0-540 0-566-21zm1054-309v-240l-495-2-495-3v243 242h495 495z"/><path d="m1181 2267c-10-19-10-30-2-46 12-21 12-21 404-19l392 3v40 40l-391 3-390 3z"/><path d="m2663 2455c-99-30-175-105-212-210-21-62-1-178 42-239 13-19 17-31 10-33-56-19-167-123-196-184-26-56-47-148-47-206v-53h464 463l5 76c6 93-9 149-57 220-43 62-83 98-140 127l-43 23 19 24c10 14 19 31 19 38 0 6 5 12 12 12 6 0 8 3 5 6-3 4-1 16 5 28 20 38 17 136-5 186-43 94-133 176-204 185-15 2-28 4-28 5 0 9-79 5-112-5zm181-111c69-43 89-82 90-168 1-77-6-93-79-183-25-30-26-33-10-62 8-17 19-32 23-32 4-1 17-3 29-4s48-15 79-31c79-40 134-128 134-216v-28h-380c-209 0-380 3-380 8 1 22 23 101 37 130 9 18 30 47 47 64 34 35 122 79 141 72 7-3 25 11 40 30 30 40 31 38-31 103-66 70-72 190-12 275 50 73 189 94 272 42z"/><path d="m604 1913c-27-21-50-41-52-45-2-5-10-8-18-8s-14-4-14-9-8-12-17-15c-10-3-31-18-48-32-16-14-42-33-57-42-16-9-28-20-28-24s-5-8-11-8-38-21-72-47c-70-55-61-48-147-110-121-87-130-94-130-104 0-7 39-9 105-7 58 2 105 0 105-3 0-4-7-12-15-19-13-10-15-52-15-260 0-235 1-249 21-274l20-26h-75c-63 0-79-3-96-20-22-22-15-52 16-64 8-3 276-6 594-6 541 0 580 1 589 18 8 14 12 15 22 5 9-9 49-13 128-13h116v-135-135h-222-222l-20-26c-19-24-19-28-4-50l15-24h491c455 0 491 1 503 18 19 24 17 46-4 65-16 15-48 17-235 17h-217v135 135h535c577 0 559-2 620 52 49 43 55 79 55 339 0 146-4 248-10 260-6 11-21 19-35 19-35 0-45-27-45-119v-81h-770c-767 0-769 0-780-21-9-16-8-26 5-45l15-24h766 766l-4-131c-3-111-6-132-20-140-11-6-285-10-713-9-678 0-695 0-715-20-11-11-22-15-25-10-4 6-42 10-86 10-73 0-79 1-65 16 14 13 16 53 16 279 0 165-4 266-10 270-25 16-2 20 95 17 116-4 135 7 70 42-19 11-35 23-35 28 0 4-7 8-15 8s-15 4-15 9-8 12-18 15c-10 4-27 14-38 24-10 10-35 29-54 42s-39 28-45 32c-5 4-39 29-75 55s-66 51-68 55c-2 5-10 8-18 8s-14 4-14 9-8 12-18 15c-10 4-27 14-38 24-10 10-35 28-54 42-19 13-37 27-40 30-7 8-69 50-73 50-2 0-26-17-53-37zm86-93c13-11 26-20 30-20 3 0 15-8 26-18 10-10 35-29 54-42s41-30 48-37 16-13 20-13 23-14 42-30 38-30 42-30 13-6 20-13 31-25 53-40l40-27h-403c-266 0-401 3-397 10 3 6 13 10 21 10s14 3 14 8c0 4 18 18 40 32s40 28 40 32 8 9 18 12c9 3 31 18 47 32 17 14 42 33 58 42 15 9 27 20 27 24s6 8 13 8 23 10 37 23c30 27 72 57 81 57 3 0 16-9 29-20zm-274-372c-24-33-24-513 0-546l15-22h-87c-76 0-85 2-74 15 10 12 13 81 12 280 0 145-3 268-6 274-4 6 20 11 66 14 40 1 77 4 81 5 5 1 1-8-7-20zm425-6c-7-13-11-111-11-273 0-221 2-255 17-271 16-17 9-18-187-18-198 0-203 1-186 19 15 16 16 47 14 289l-3 272 180 2c99 2 181 2 183 1s-1-10-7-21zm201 6c-9-9-12-86-12-274 0-225 2-265 16-278 14-15 7-16-72-16-73 0-85 2-71 13 16 11 17 37 15 289l-3 277 65 3c74 3 78 2 62-14z"/></g></svg>