<svg height="320pt" preserveAspectRatio="xMidYMid meet" viewBox="0 0 320 320" width="320pt" xmlns="http://www.w3.org/2000/svg" fill="#97d4ff"><g transform="matrix(.1 0 0 -.1 0 320)"><path d="m347 3182c-15-16-17-54-17-323 0-224 3-308 12-317s93-12 318-12c285 0 308 1 323 18 25 27 21 58-10 82-25 20-36 21-224 18l-198-3 27 29c15 15 73 63 130 106 594 447 1411 390 1938-135 240-240 377-511 424-845 18-123 8-400-18-515-32-139-57-209-127-350-210-426-602-717-1077-800-46-8-97-15-114-15-65 0-107-66-66-103 73-67 536 62 782 218 395 249 670 670 741 1135 16 105 6 453-15 550-46 207-146 433-264 600-85 120-270 306-387 389-102 72-312 177-429 215-175 58-264 70-491 70-188 0-222-2-330-26-275-59-527-185-735-369l-90-80v219c0 181-3 221-16 240-19 27-64 29-87 4z"/><path d="m1430 2861c-89-13-121-41-105-91 11-36 37-41 137-29 98 12 272 7 354-11 27-6 88-22 136-37 83-25 88-25 113-9 30 20 34 65 8 88-60 49-241 88-433 93-85 2-180 0-210-4z"/><path d="m2218 2679c-27-15-39-45-29-71 10-27 139-118 168-118 27 0 53 31 53 63 0 27-46 71-120 116-39 24-48 25-72 10z"/><path d="m157 2269c-31-24-35-59-9-82 10-9 44-28 76-43 45-21 65-25 84-18 67 24 53 86-28 125-85 40-94 42-123 18z"/><path d="m1157 2283c-4-3-7-237-7-520v-513h-80-80v-50-50h80 80l2-182 3-183 73-3 72-3v186 185h310 310v56 56l-310-7-310-7v75 75l293 4c316 5 355 10 465 66 61 30 133 98 167 157 50 85 68 242 41 356-36 155-163 261-353 294-82 15-743 22-756 8zm793-167c126-48 170-114 170-257 0-145-39-217-145-265-80-37-146-44-422-44h-253v296 296l303-4c255-4 309-7 347-22z"/><path d="m52 1964c-27-19-29-64-4-87 10-9 49-23 87-31 65-14 72-14 95 3 59 42 26 96-70 116-82 18-81 18-108-1z"/><path d="m22 1644c-26-18-30-65-6-88 11-12 36-16 99-16 75 0 85 2 99 22 22 31 20 45-9 73-21 22-33 25-92 25-46 0-76-5-91-16z"/><path d="m116 1344c-32-8-65-22-72-32-20-25-13-62 16-83 24-18 29-18 95-3 98 22 132 67 85 114-23 23-43 24-124 4z"/><path d="m204 1041c-59-28-74-44-74-80 0-23 31-51 57-51 33 0 149 56 157 75 11 29 7 51-12 68-26 24-57 21-128-12z"/><path d="m420 806c-50-22-121-81-126-103-9-33 20-73 52-73 30 0 141 76 150 103 16 51-29 95-76 73z"/><path d="m561 531c-55-63-64-97-33-124 35-32 65-21 121 42 55 64 64 97 33 124-35 32-66 21-121-42z"/><path d="m864 410c-25-10-94-122-94-154s32-58 66-54c22 2 36 17 73 77 41 69 43 76 30 99-17 30-46 42-75 32z"/><path d="m1118 273c-9-10-25-49-38-86-20-63-21-69-6-92 19-29 66-34 90-10 8 9 25 46 37 84 21 66 22 71 5 95-20 31-65 35-88 9z"/><path d="m1411 211c-23-23-39-148-22-179 21-39 81-40 101-2 5 10 13 50 16 89 6 61 4 74-11 91-23 25-59 26-84 1z"/></g></svg>