<svg height="320pt" preserveAspectRatio="xMidYMid meet" viewBox="0 0 320 320" width="320pt" xmlns="http://www.w3.org/2000/svg" fill="#97d4ff"><g transform="matrix(.1 0 0 -.1 0 320)"><path d="m1206 3180c-41-13-66-39-167-176l-89-121-163-7c-89-4-176-12-194-17-43-14-100-79-109-125-4-20-16-96-28-168l-21-131-130-72c-155-87-180-105-206-146-31-52-24-107 33-272l52-151-89-139c-75-119-89-148-93-191-6-74 13-105 144-235l116-114-9-120c-15-215-12-256 20-298 37-49 58-59 217-101 74-20 143-39 152-42s23-24 31-47c20-54 68-168 97-230 26-56 75-93 135-102 27-5 86 3 185 25 80 17 150 33 157 35s66-40 132-95c140-116 165-130 228-130 56 0 55 0 216 131l118 97 57-13c150-35 278-56 306-51 52 11 101 51 126 103 29 62 77 176 96 230 17 47 4 41 223 99 109 29 151 51 185 97 24 33 27 91 13 292l-9 120 128 127 128 126 4 64 3 63-90 142c-50 78-91 147-91 154 0 6 23 81 50 166 28 85 50 163 50 174 0 29-28 90-52 116-12 13-83 58-158 100l-136 77-27 164c-42 258-57 273-302 283-88 4-166 8-172 8-7 1-58 61-113 135s-113 142-127 152c-15 9-49 19-75 22-42 4-62-3-198-67-111-53-157-70-173-65-12 4-76 33-142 66-124 61-184 76-239 58zm220-210c92-44 171-80 176-80s58 23 116 51c197 95 235 110 242 102s209-278 222-297c4-6 88-14 199-18 105-4 193-9 195-10 2-2 18-90 35-194l32-191 152-87c83-47 159-92 167-99 13-11 8-34-45-196-46-141-57-188-49-200 46-67 192-303 192-310 0-5-61-66-136-137l-137-129 8-105c4-58 10-145 13-193 4-49 5-92 2-97-3-4-84-29-180-56-96-26-180-52-186-58s-30-58-54-116c-100-241-97-235-116-233-11 1-98 18-195 38l-176 37-114-94c-172-141-187-152-202-141-6 5-74 60-151 122l-138 113-178-37c-98-20-186-35-196-33-17 3-37 43-125 253-18 44-38 85-43 91-6 6-91 33-188 59s-179 53-181 59 2 72 9 146 13 160 13 191l1 57-135 127c-74 70-135 133-135 139 0 7 46 84 102 171l101 160-27 80c-15 44-43 123-62 176s-32 104-28 112c3 8 78 55 167 103s165 91 168 96c3 4 18 88 34 185 16 98 33 184 38 191 7 9 58 12 192 12h183l28 33c16 19 71 91 122 160 51 70 95 127 97 127 3 0 80-36 171-80z"/><path d="m2006 2360-59-5-114-205c-63-113-135-243-160-290-26-47-112-204-193-350s-163-294-182-330c-20-36-68-123-107-194s-69-136-67-143c4-9 25-13 66-13 71 0 60-13 198 240 19 36 59 107 89 158 29 52 53 95 53 97 0 1 27 51 61 111s79 143 102 184c22 41 43 80 47 85 8 11 39 67 98 175 19 36 49 90 67 120s54 96 81 145c26 50 60 112 76 138 46 78 40 85-56 77z"/><path d="m1146 2353c-33-9-93-50-114-80-47-66-52-95-52-298 0-192 0-193 28-246 92-177 339-180 431-4 26 49 26 53 26 255 0 191-1 208-22 245-28 52-78 100-125 119-35 15-129 20-172 9zm119-157c18-8 38-23 44-34 7-13 11-88 11-191 0-165-1-171-24-198-20-23-32-28-71-28s-51 5-71 28c-23 27-24 33-24 200 0 185 5 208 54 227 30 12 42 12 81-4z"/><path d="m1930 1599c-60-12-118-54-155-114l-30-48v-217-217l30-48c86-139 268-163 380-50 67 67 78 116 74 339-4 176-5 182-31 227-61 103-156 149-268 128zm107-169c42-25 46-51 42-244-4-134-6-157-23-175-39-43-119-36-152 14-15 23-17 51-17 187 1 175 10 211 52 227 40 15 63 13 98-9z"/></g></svg>