<svg height="320pt" preserveAspectRatio="xMidYMid meet" viewBox="0 0 320 320" width="320pt" xmlns="http://www.w3.org/2000/svg"><path d="m738 3181c-79-26-137-62-187-116-70-76-86-122-86-245 1-120 17-174 85-279l40-61h-235-235v-460-460h60 60v-780-780h1360 1360v780 780h60 60v460 460h-235-235l40 61c68 105 84 159 85 279 0 95-3 110-28 161-47 98-138 168-261 204-85 25-260 17-336-15-175-74-359-255-473-461-18-32-34-59-37-59s-19 27-37 59c-114 206-298 386-473 461-77 33-268 39-352 11zm299-256c105-51 268-238 352-403l22-43-203 3-204 3-64 32c-158 78-259 230-229 345 25 95 193 127 326 63zm1387 10c52-25 70-57 69-121-3-110-96-229-233-297l-64-32-204-3-203-3 22 43c102 202 273 382 402 424 54 18 161 12 211-11zm406-920v-215h-1230-1230v215 215h1230 1230zm-1630-870c0-228 4-415 9-415 4 0 94 40 200 90l191 89 191-89c106-50 196-90 200-90 5 0 9 187 9 415v415h360 360v-660-660h-1120-1120v660 660h360 360zm550 190c0-124-2-225-5-225s-37 16-75 35l-70 35-70-35c-38-19-72-35-75-35s-5 101-5 225v225h150 150z" transform="matrix(.1 0 0 -.1 0 320)"/></svg>