<svg height="320pt" preserveAspectRatio="xMidYMid meet" viewBox="0 0 320 320" width="320pt" xmlns="http://www.w3.org/2000/svg" fill="#97d4ff"><g transform="matrix(.1 0 0 -.1 0 320)"><path d="m726 3178c-9-12-16-36-16-53v-30h-63c-34 0-74-4-89-8-38-10-86-53-108-98-20-37-20-68-20-1451l1-1413 27-40c15-22 43-50 61-62l34-23h1047 1047l34 23c18 12 46 40 61 62l27 40 1 1413c0 1383 0 1414-20 1451-22 45-70 88-108 98-15 4-55 8-89 8h-63v30c0 44-25 75-60 75s-60-31-60-75v-30h-105-105v30c0 44-25 75-60 75-39 0-60-24-60-68v-37l-110 3-110 3v38c0 46-14 61-57 61-37 0-53-21-53-72v-33h-110-110v33c0 51-16 72-53 72-43 0-57-15-57-61v-38l-110-3-110-3v37c0 44-21 68-60 68-35 0-60-31-60-75v-30h-105-105v30c0 44-25 75-60 75-18 0-34-8-44-22zm-16-233c0-65 71-101 104-53 9 12 16 37 16 55v33h105 105v-26c0-14 5-35 11-47 35-65 109-41 109 35v38h110 110v-37c0-63 50-94 92-56 11 10 18 30 18 55v38h110 110v-37c0-63 50-94 92-56 11 10 18 30 18 55v38h110 110v-37c0-77 74-102 109-36 6 12 11 33 11 47v26h105 105v-33c0-18 7-43 16-55 33-48 104-12 104 53v35h64c56 0 67-3 80-22 14-20 16-171 16-1413s-2-1393-16-1413l-15-22h-1019-1019l-15 22c-14 20-16 171-16 1413s2 1393 16 1413c13 19 24 22 80 22h64z"/><path d="m1060 2415-126-125-69 70c-52 53-76 70-97 70-27 0-58-31-58-59 0-23 201-221 225-221 28 0 335 308 335 336 0 12-8 28-18 37-38 35-60 22-192-108z"/><path d="m1402 2474c-30-20-30-68 0-88 19-14 77-16 424-16h403l20 26c27 34 26 40-4 69l-24 25h-398c-345 0-402-2-421-16z"/><path d="m1402 2254c-27-19-29-64-4-87 17-15 69-17 535-17 504 0 518 1 537 20 26 26 25 46-5 75l-24 25h-508c-444 0-511-2-531-16z"/><path d="m1068 1863-127-127-75 72c-40 40-83 72-93 72-22 0-63-39-63-60 0-7 46-59 102-116 75-77 108-104 127-104 18 0 62 37 173 148 82 81 151 157 155 170 7 30-22 72-50 72-15 0-62-40-149-127z"/><path d="m1425 1933c-44-11-60-67-27-96 17-15 61-17 429-17 447 0 436-1 436 56 0 59 4 59-426 61-216 0-401-1-412-4z"/><path d="m1396 1694c-20-20-20-58 0-78 14-14 76-16 539-16h525l17 26c15 24 15 29 2 53l-15 26-526 3c-469 2-528 0-542-14z"/><path d="m1065 1310-131-130-63 65c-79 83-95 91-126 71-34-23-40-51-16-84 35-48 175-180 200-187 20-6 43 13 182 152 110 109 159 166 159 181 0 26-33 62-57 62-9 0-76-59-148-130z"/><path d="m1397 1362c-21-23-22-52-3-78 14-18 30-19 425-19 369 0 412 2 427 17 20 19 22 62 4 83-11 13-70 15-425 15-386 0-413-1-428-18z"/><path d="m1397 1142c-24-26-21-68 5-86 20-14 87-16 531-16h508l24 25c30 29 31 49 5 75-19 19-33 20-538 20-490 0-520-1-535-18z"/><path d="m1060 755-125-125-70 70c-52 52-77 70-98 70-31 0-62-39-53-68 10-29 201-212 222-212 27 0 334 309 334 336 0 12-8 28-18 37-39 36-62 23-192-108z"/><path d="m1402 814c-30-20-30-68 0-88 19-14 76-16 421-16h398l24 25c30 29 31 35 4 69l-20 26h-403c-347 0-405-2-424-16z"/><path d="m1402 594c-27-19-29-64-4-87 17-15 68-17 534-17h515l21 23c28 30 28 42-3 72l-24 25h-508c-444 0-511-2-531-16z"/></g></svg>