<svg height="320pt" preserveAspectRatio="xMidYMid meet" viewBox="0 0 320 320" width="320pt" xmlns="http://www.w3.org/2000/svg"><g transform="matrix(.1 0 0 -.1 0 320)"><path d="m1975 2798c-147-34-206-53-287-93-194-97-334-224-442-402l-37-63-60 31-60 30 5-83c4-46 9-126 12-178 4-52 7-111 9-130 1-19 3-52 4-72 1-43 15-48 50-20 11 9 56 41 99 70 42 29 121 84 176 122l98 69-66 33c-56 27-65 35-60 53 22 69 183 238 286 300 81 48 209 100 273 110 28 5 57 10 65 11 22 5 192 5 210 1 8-2 37-7 64-12 71-11 207-67 284-116 81-51 196-164 243-239 66-103 114-221 128-315 8-55 8-241-1-295-32-193-151-389-313-516-82-64-220-126-344-154-56-13-264-17-299-6-11 4-33 8-48 10-16 2-55 14-87 26-33 12-63 18-67 14-10-11-83-195-78-198 16-10 168-54 213-62 158-25 199-27 303-15 59 8 117 17 130 22s36 11 53 14c77 14 262 104 343 167 115 90 231 227 304 358 40 73 101 253 110 327 12 96 7 332-7 358-3 5-6 16-7 25-14 96-80 252-156 363-137 204-356 367-565 422-158 42-374 57-478 33z"/><path d="m2090 2202v-57l-51-18c-53-19-91-51-123-102-26-40-26-127-1-179 22-47 107-105 197-135 34-12 72-31 85-43 32-29 31-80-1-101-34-23-156-16-220 12-50 22-65 18-66-16 0-22-1-27-16-62-8-18-14-37-14-41 0-10 97-40 156-48l48-7-3-58-2-57h66 66l-2 62c-3 60-2 62 27 71 125 38 182 118 171 239-5 56-9 64-53 109-37 37-70 58-146 90-113 47-130 61-126 98 6 50 94 66 197 35 29-8 57-14 63-12 11 4 37 86 38 119 0 19-82 46-148 48-21 1-22 4-17 35 12 63 1 76-66 76h-59z"/><path d="m415 1873c-46-12-87-56-121-131-19-41-31-79-27-83 5-3 184-84 398-179 615-272 907-401 949-421 22-10 40-18 42-16 6 7 53 118 63 150 16 48 2 93-42 134-22 20-214 110-612 286-319 141-591 258-605 261-14 2-34 2-45-1z"/><path d="m185 1494c-8-13-15-26-15-28 0-3-11-29-24-58-45-98-78-173-91-203-7-16-23-52-35-80-26-59-23-144 7-178 19-22 104-63 333-162 288-124 636-277 698-306 35-16 66-29 70-29 4-1 25-9 47-20s46-19 53-20c6 0 12-4 12-10 0-5 18-10 40-10s40 5 40 10c0 6 6 10 13 10 25 0 65 55 106 143 23 49 41 90 41 92s13 32 29 67c82 177 89 198 71 198-9 0-456 195-598 261-35 16-65 29-67 29-3 0-39 16-81 35-41 19-77 35-79 35-3 0-28 11-57 25-29 13-153 69-275 124l-222 99zm1079-735c57-25 96-47 96-56 0-8-9-33-20-55-11-23-20-48-20-55s-6-13-12-13c-26 0-218 85-218 97 0 24 53 123 65 123 8 0 57-19 109-41z"/></g></svg>