<svg height="320pt" preserveAspectRatio="xMidYMid meet" viewBox="0 0 320 320" width="320pt" xmlns="http://www.w3.org/2000/svg"><g transform="matrix(.1 0 0 -.1 0 320)"><path d="m189 3026c-67-21-114-61-146-123-26-52-30-69-30-145-1-79 2-92 31-143 32-58 91-110 136-121 14-4 72-8 130-11s106-6 107-7c4-3-62-170-92-234-14-29-25-57-25-62 0-6-17-52-39-103-21-50-57-141-80-202-23-60-46-119-51-130-37-80-124-316-127-343-3-26 3-39 25-62l29-29 234-1c128 0 234-2 235-3s5-42 8-91c4-49 8-91 10-95 2-3 7-24 10-46 4-22 9-49 13-60s7-24 8-30c2-24 28-102 51-154 81-183 198-346 310-431 32-25 64-50 71-56 42-40 263-141 324-149 16-2 46-9 67-16 40-13 306-19 382-7 402 58 723 349 855 773 28 88 31 104 40 175 2 19 9 66 14 104 6 38 9 73 8 78s98 8 220 9c218 0 223 0 250 23 43 37 38 70-34 249-36 89-76 189-88 222-37 101-61 163-88 225-8 19-36 89-62 155s-62 158-80 205l-34 85 102 6c116 6 147 18 207 81 28 28 46 60 60 105 25 81 25 105 0 186-15 50-31 77-65 110-82 83 30 77-1502 76-987-1-1368-4-1394-13zm2302-293c12-38 35-96 50-131 16-34 29-66 29-71s12-35 26-67c15-33 34-81 44-109 28-78 70-185 96-242 13-28 24-56 24-62 0-5 9-31 21-58 20-45 37-89 104-268 15-38 33-83 40-100 8-16 23-54 34-82l19-53h-519-519v156c0 175-7 211-60 299-39 67-129 136-203 156-64 17-173 7-237-23-98-45-193-166-204-260-2-18-4-99-5-180l-1-148h-504-505l35 88c19 48 47 119 61 157 14 39 29 75 33 80 4 6 15 35 25 65s26 73 36 95 27 65 38 95 32 84 46 120c105 260 136 339 152 385 12 36 25 67 69 172 8 17 14 36 14 42 0 8 244 11 869 11h869zm-853-809c16-3 43-18 60-34 61-55 61-58 62-400l1-313 29-28c36-37 78-38 119-3 29 24 31 30 31 97v72l287-2 286-2 2-28c0-15-3-50-7-78-4-27-10-63-12-80-15-114-95-319-159-409-127-179-289-292-501-348-121-32-311-33-431-3-169 42-296 109-394 209l-54 55 7 57c13 111 94 232 226 336 53 42 186 118 205 118 12 0 15 61 17 338 3 331 3 338 26 374 38 61 115 89 200 72zm-408-636c0-20-8-32-27-42-51-26-158-110-219-171-69-70-100-110-139-183-20-36-31-49-37-40-10 17-69 196-74 228-3 14-7 31-10 39-2 8-7 48-10 90s-7 81-9 88c-2 6-2 13 0 15 2 1 121 3 264 3h261z"/><path d="m1162 2648c-21-10-82-97-82-117 0-12-52-21-79-14-11 3-35 0-51-7-27-11-30-17-30-55 0-56 17-69 102-73 67-4 71-6 116-51 60-59 129-84 241-88 146-4 232 31 315 131 88 107 100 116 149 116s77-18 77-50c0-26-17-69-35-86-22-23-18-53 8-63 32-12 114-31 137-31 26 0 66 41 81 85 13 35 14 35 72 35 81 0 97 11 97 63 0 24-5 48-12 55s-41 12-83 12c-68 0-71 1-88 30-40 66-155 109-285 106-137-3-198-37-298-165-30-39-64-73-75-76-65-21-138 0-140 40-3 59 8 93 44 132 15 17 17 26 9 36-24 29-154 53-190 35z"/></g></svg>