<svg height="512" viewBox="0 0 64 64" width="512" xmlns="http://www.w3.org/2000/svg" fill="#97d4ff"><path d="m60 9v-3a4 4 0 0 0 -4-4h-43a4 4 0 0 0 -4 4v2h-2a3 3 0 0 0 0 6h2v40h-4a1 1 0 0 0 -1 1v3a4 4 0 0 0 4 4h36a15.986 15.986 0 0 0 10-28.47v-23.53h5a1 1 0 0 0 1-1zm-54 2a1 1 0 0 1 1-1h27v2h-27a1 1 0 0 1 -1-1zm34.764-1 2 1-2 1h-4.764v-2zm-32.764 50a2 2 0 0 1 -2-2v-2h25.53a16.123 16.123 0 0 0 4.741 4zm50-14a14 14 0 1 1 -14-14 14.015 14.015 0 0 1 14 14zm-14-16a15.971 15.971 0 0 0 -13.835 24h-19.165v-40h30a1 1 0 0 0 .447-.105l4-2a1 1 0 0 0 0-1.79l-4-2a1 1 0 0 0 -.447-.105h-30v-2a2 2 0 0 1 2-2h39.556a3.959 3.959 0 0 0 -.556 2v26.165a15.883 15.883 0 0 0 -8-2.165zm14-22h-4v-2a2 2 0 0 1 4 0z"/><path d="m40.172 42.172h2v2h-2z" transform="matrix(.70710678 -.70710678 .70710678 .70710678 -18.468 41.758)"/><path d="m45.828 47.828h2v2h-2z" transform="matrix(.70710678 -.70710678 .70710678 .70710678 -20.811 47.414)"/><path d="m38.001 45h11.999v2h-11.999z" transform="matrix(.70710678 -.70710678 .70710678 .70710678 -19.64 44.586)"/><path d="m44 34a12 12 0 1 0 12 12 12.013 12.013 0 0 0 -12-12zm0 22a10 10 0 1 1 10-10 10.011 10.011 0 0 1 -10 10z"/><path d="m16 17h2v2h-2z"/><path d="m20 17h29v2h-29z"/><path d="m14 21h35v2h-35z"/><path d="m14 25h35v2h-35z"/><path d="m14 29h20v2h-20z"/><path d="m14 49h10v2h-10z"/><path d="m14 36v8a1 1 0 0 0 1 1h11v-2h-10v-6h13v-2h-14a1 1 0 0 0 -1 1z"/><path d="m56 14h2v17h-2z"/><path d="m5 18h2v24h-2z"/><path d="m5 44h2v2h-2z"/></svg>