<svg enable-background="new 0 0 438.891 438.891" viewBox="0 0 438.891 438.891" xmlns="http://www.w3.org/2000/svg" fill="#97d4ff"><path d="m347.968 57.503h-39.706v-17.763c0-5.747-6.269-8.359-12.016-8.359h-30.824c-7.314-20.898-25.6-31.347-46.498-31.347-20.668-.777-39.467 11.896-46.498 31.347h-30.302c-5.747 0-11.494 2.612-11.494 8.359v17.763h-39.707c-23.53.251-42.78 18.813-43.886 42.318v299.363c0 22.988 20.898 39.706 43.886 39.706h257.045c22.988 0 43.886-16.718 43.886-39.706v-299.362c-1.106-23.506-20.356-42.068-43.886-42.319zm-196.441-5.224h28.735c5.016-.612 9.045-4.428 9.927-9.404 3.094-13.474 14.915-23.146 28.735-23.51 13.692.415 25.335 10.117 28.212 23.51.937 5.148 5.232 9.013 10.449 9.404h29.78v41.796h-135.838zm219.429 346.906c0 11.494-11.494 18.808-22.988 18.808h-257.045c-11.494 0-22.988-7.314-22.988-18.808v-299.363c1.066-11.964 10.978-21.201 22.988-21.42h39.706v26.645c.552 5.854 5.622 10.233 11.494 9.927h154.122c5.98.327 11.209-3.992 12.016-9.927v-26.646h39.706c12.009.22 21.922 9.456 22.988 21.42v299.364z"/><path d="m179.217 233.569c-3.919-4.131-10.425-4.364-14.629-.522l-33.437 31.869-14.106-14.629c-3.919-4.131-10.425-4.363-14.629-.522-4.047 4.24-4.047 10.911 0 15.151l21.42 21.943c1.854 2.076 4.532 3.224 7.314 3.135 2.756-.039 5.385-1.166 7.314-3.135l40.751-38.661c4.04-3.706 4.31-9.986.603-14.025-.19-.211-.391-.412-.601-.604z"/><path d="m329.16 256.034h-120.163c-5.771 0-10.449 4.678-10.449 10.449s4.678 10.449 10.449 10.449h120.163c5.771 0 10.449-4.678 10.449-10.449s-4.678-10.449-10.449-10.449z"/><path d="m179.217 149.977c-3.919-4.131-10.425-4.364-14.629-.522l-33.437 31.869-14.106-14.629c-3.919-4.131-10.425-4.364-14.629-.522-4.047 4.24-4.047 10.911 0 15.151l21.42 21.943c1.854 2.076 4.532 3.224 7.314 3.135 2.756-.039 5.385-1.166 7.314-3.135l40.751-38.661c4.04-3.706 4.31-9.986.603-14.025-.19-.211-.391-.412-.601-.604z"/><path d="m329.16 172.442h-120.163c-5.771 0-10.449 4.678-10.449 10.449s4.678 10.449 10.449 10.449h120.163c5.771 0 10.449-4.678 10.449-10.449s-4.678-10.449-10.449-10.449z"/><path d="m179.217 317.16c-3.919-4.131-10.425-4.363-14.629-.522l-33.437 31.869-14.106-14.629c-3.919-4.131-10.425-4.363-14.629-.522-4.047 4.24-4.047 10.911 0 15.151l21.42 21.943c1.854 2.076 4.532 3.224 7.314 3.135 2.756-.039 5.385-1.166 7.314-3.135l40.751-38.661c4.04-3.706 4.31-9.986.603-14.025-.19-.21-.391-.411-.601-.604z"/><path d="m329.16 339.626h-120.163c-5.771 0-10.449 4.678-10.449 10.449s4.678 10.449 10.449 10.449h120.163c5.771 0 10.449-4.678 10.449-10.449s-4.678-10.449-10.449-10.449z"/></svg>