<svg height="320pt" preserveAspectRatio="xMidYMid meet" viewBox="0 0 320 320" width="320pt" xmlns="http://www.w3.org/2000/svg"><path d="m1350 2830c-236-51-444-164-616-335-50-49-103-108-117-130s-40-59-57-83c-32-45-120-222-120-241 0-6-4-19-9-29-37-66-70-263-70-412 0-191 38-356 125-547 106-233 329-461 569-581 87-43 217-87 318-107 104-20 387-17 472 5 93 24 229 72 290 102 168 85 355 244 460 393 55 77 155 268 155 295 0 9 3 20 8 24 4 4 7 11 7 14 1 4 8 30 18 57 27 80 46 223 46 345s-19 265-46 345c-10 28-17 53-18 57 0 3-3 10-7 14-5 4-8 14-8 22 0 7-22 60-49 115-168 349-485 597-866 678-123 26-364 25-485-1zm170-362v-243h-209c-239 0-218-14-162 109 71 157 181 285 294 341 39 19 71 35 73 35s4-109 4-242zm262 191c82-42 188-173 253-313 23-50 44-98 47-106 5-13-21-15-193-15h-199v237 238l25-10c13-5 43-19 67-31zm-557-17c-43-30-166-269-208-402-4-13-29-15-166-12-190 3-185-6-58 128 102 108 212 191 331 249 81 40 130 58 101 37zm840-36c139-68 294-192 390-311 55-69 62-65-110-65-85 0-158-1-161-2-3-2-19 32-35 76-32 88-97 224-116 244-7 7-13 17-13 21 0 7-12 23-50 69-17 20-1 14 95-32zm-1101-568c-2-13-7-39-10-58s-8-38-10-41c-3-6-13-105-19-199-1-19-3-41-4-47-1-10-50-13-211-13h-210l5 55c6 63 49 232 73 288l16 37h187 188zm556-168v-190h-258-258l3 58c3 80 11 144 30 240l17 82h233 233zm633 108c18-90 27-163 30-245l2-53h-247-248v190 190h223 223zm471 10c27-75 54-191 61-265l4-43h-209c-161 0-210 3-212 13-3 30-6 66-8 117-3 53-12 118-34 228l-5 22h189 188zm-1698-513c2-65 14-202 19-217 2-7 6-24 9-38s8-38 11-55l7-30-190 3-189 3-17 37c-14 32-38 115-51 175-2 10-6 26-9 35s-8 43-11 75l-5 57 213-2 212-3zm594-147v-193l-233 3-233 3-12 52c-21 91-33 187-36 274l-2 53h258 258zm664 135c-5-103-16-183-36-270l-12-52-223-3-223-3v193 192h249 248zm501 0c-3-32-8-66-11-75s-7-25-9-35c-13-60-37-143-51-175l-17-37-189-3-190-3 7 30c3 17 8 41 11 55s7 31 9 38c5 13 18 163 17 192 0 8 2 27 5 43l5 27h209 209zm-1824-493h150l15-37c9-20 18-46 20-57 4-24 94-209 104-216 4-3 15-18 24-35 9-16 24-40 33-53l16-23-59 26c-129 57-244 138-345 242-89 92-149 169-126 160 10-4 86-7 168-7zm659-238v-242l-37 15c-153 64-282 215-361 422l-18 48h208 208zm553 203c-18-54-68-147-116-220-63-94-155-172-239-204l-27-10-3 237-3 237h201 201zm394-12c-84-108-222-230-337-296-69-40-162-79-154-65 4 7 22 33 40 58 35 51 122 225 128 256 2 11 11 37 19 57l16 36 158 4c87 1 162 4 166 5 5 1-12-24-36-55z" transform="matrix(.1 0 0 -.1 0 320)"/></svg>