<svg height="320pt" preserveAspectRatio="xMidYMid meet" viewBox="0 0 320 320" width="320pt" xmlns="http://www.w3.org/2000/svg"><g transform="matrix(.1 0 0 -.1 0 320)"><path d="m935 2937c-188-45-298-102-416-219-84-83-95-98-146-194-39-74-88-194-78-194 2 0-2-17-9-38-14-37-20-237-8-257 3-5 7-18 9-30 14-101 83-257 153-345 55-70 177-181 211-192 5-2-2-31-16-65-47-116-66-292-45-413 24-138 30-158 88-269 53-103 79-138 162-222 284-287 737-328 1077-98 111 75 250 243 300 364 54 128 68 206 67 361v111l65 12c72 14 209 73 268 118 155 115 267 292 297 468 1 6 5 15 8 20 8 13 8 206 0 220-4 6-7 15-8 21-6 38-39 137-62 184-142 292-445 452-769 407-96-13-249-75-304-123-14-13-20-8-53 42-96 144-277 273-441 313-27 7-59 15-70 18-35 10-239 10-280 0zm325-206c84-29 182-88 242-145 50-48 118-140 118-160 0-6-16-36-36-66-49-75-100-202-108-270-1-8-6-41-10-72l-8-58-42-1c-67-1-138-9-181-21-22-6-44-13-50-14-37-10-122-47-167-72-72-42-100-65-189-152-88-86-88-86-184 5-107 102-170 239-181 397-22 292 152 543 440 633 96 31 259 28 356-4zm1085-246c249-68 414-308 391-572-3-40-12-89-20-108-9-20-15-36-14-38 1-1-7-20-17-42-29-61-100-148-153-186-26-18-49-36-52-39-19-22-197-80-247-80-1 0-15 24-29 53-57 113-161 239-269 326-41 33-150 89-215 112l-72 24 6 60c9 96 16 126 47 193 110 243 383 369 644 297zm-785-724c25-5 56-12 69-15 69-16 193-91 264-159 71-69 137-154 137-176 0-6 5-19 10-29 32-51 57-158 59-251 4-166-38-301-133-427-39-53-64-78-144-145-26-21-159-80-226-98-77-21-236-23-317-3-61 15-164 61-219 97-72 47-175 160-213 233-57 108-76 196-73 337 3 145 31 240 103 347 110 164 256 253 495 302 22 4 149-5 188-13z"/><path d="m742 2613-33-4 34-62c19-34 53-94 76-133 22-39 41-74 41-78 0-3-20-6-44-6-47 0-56-11-56-75 0-48 10-54 90-58l75-3-81-2-81-2 1-57 1-58 77-3 77-3 3-67 3-67h75 75l3 67 3 67 82 3 82 3v55 55l-85 6-85 5 76 2c48 1 80 7 86 15 8 10 10 59 5 105-1 8-21 12-57 12h-55l25 40c14 22 25 42 25 44 0 3 23 44 50 92 28 48 50 90 50 95 0 8-92 21-128 17-24-2-47-35-112-160-34-65-36-67-51-47-8 11-33 55-54 97s-45 84-52 93c-13 16-73 21-141 12z"/><path d="m2202 2367c-51-16-118-81-152-150-29-58-32-61-64-59-37 4-46-11-46-79 0-40 12-55 50-62 22-4 21-4-6-6-34-1-44-18-44-76 0-42 10-53 49-57 30-3 36-8 50-47 24-66 92-136 154-159 68-26 190-27 270-2 32 10 61 20 63 23 5 4-45 137-51 137-1 0-22-7-45-15-88-31-192-11-228 43l-14 22h110 111l6 33c3 17 4 43 1 57-2 14-5 28-5 33-1 4-56 8-123 9l-123 2 120 6 119 5 10 33c5 20 5 44 0 65l-10 32h-102c-105 0-119 6-84 38s92 49 141 42c25-3 49-5 52-3s13-3 22-11c25-20 43-7 61 45 18 53 20 80 8 88-34 21-246 30-300 13z"/><path d="m1387 1574c-4-4-7-26-7-50 0-37-3-43-26-48-69-18-130-84-146-161-12-58 12-138 56-179 17-16 72-48 123-71 113-51 123-59 123-100 0-78-112-99-266-50-19 6-23 0-37-52-24-84-23-91 21-102 79-21 125-29 138-24 11 4 14-7 14-45 0-49 0-50 36-56 20-4 49-4 65-1 28 6 29 9 29 60 0 52 0 53 43 73 101 48 148 157 117 273-15 54-68 106-142 139-124 55-139 63-149 81-11 21-3 60 15 71 19 13 120 9 170-6l46-14 15 28c8 15 18 46 23 67 11 46 1 56-64 69-22 5-42 9-46 10-5 1-12 2-17 3-6 0-11 20-13 44l-3 42-55 3c-31 2-59 0-63-4z"/></g></svg>