<svg height="320pt" preserveAspectRatio="xMidYMid meet" viewBox="0 0 320 320" width="320pt" xmlns="http://www.w3.org/2000/svg"><g transform="matrix(.1 0 0 -.1 0 320)"><path d="m430 1750v-1100h464 465l-43 97-42 98-327 3-327 2v220 220l336 2 336 3 34 85c18 47 34 91 34 98 0 9-81 12-370 12h-370v265 265h725 725v-110-110h100 100v525 525h-920-920zm1640 690v-220h-725-725v220 220h725 725z"/><path d="m1813 1671c-46-20-83-41-83-48 0-6 9-32 20-57l19-45-45-33c-43-31-134-132-134-149 0-4-25 3-56 17s-58 24-59 22c-5-6-63-135-69-154s1-24 46-43l53-21v-135-135l-52-21c-29-12-53-25-53-29 0-7 69-162 75-168 1-1 26 7 55 18 29 12 56 17 60 13 3-4 19-25 34-46s53-58 85-84l58-46-19-49c-10-26-18-52-18-56 0-9 147-72 165-72 6 0 19 23 30 50l20 51 45-8c58-10 124-10 178 1l43 8 21-51c12-28 27-51 32-51 23-1 166 66 166 77 0 6-9 31-19 56l-19 45 43 31c24 17 62 54 86 83 23 29 46 57 49 61 4 4 31-1 60-13 29-11 54-19 56-17 2 1 19 38 39 82 36 78 39 105 11 105-9 0-31 7-50 16-32 16-33 19-25 48 12 40 12 162 0 202-9 31-8 32 45 54 30 12 54 26 54 30 0 6-67 155-75 168-1 1-23-7-49-18s-51-20-55-20-22 20-40 45c-17 24-58 65-91 90l-59 47 20 45c10 24 19 50 19 56 0 10-46 33-172 85-4 2-8-2-8-10 0-7-7-31-17-53l-16-40h-137-137l-16 40c-10 22-17 46-17 53 0 16-2 16-97-27zm363-265c201-53 320-232 292-439-17-126-104-244-223-303-55-27-68-29-165-28-94 0-111 3-163 28-163 80-252 242-227 416 33 234 260 386 486 326z"/></g></svg>