<svg height="320pt" preserveAspectRatio="xMidYMid meet" viewBox="0 0 320 320" width="320pt" xmlns="http://www.w3.org/2000/svg"><g transform="matrix(.1 0 0 -.1 0 320)"><path d="m430 3031c-5-11-10-33-10-49 0-25-5-30-39-41-48-14-113-83-129-139-9-28-12-214-12-661 0-618 0-622 20-616 11 3 39 8 63 10 23 3 64 7 90 11l49 6-3 72c-5 139 7 146 241 146 144 0 177-3 201-17 15-9 31-24 35-32 3-9 5-80 4-159l-1-143 34-32c19-18 42-46 51-64 21-42 26-115 11-160-13-38-2-113 17-113 6 0 8 9 5 21-8 29 10 63 43 82 42 25 359 25 401 0 16-10 32-25 35-35s5-97 5-193-2-183-5-193-19-25-35-35c-42-25-359-25-401 0-32 18-52 55-44 78 4 8 1 15-5 15-17 0-29-61-18-95 13-43 16-96 5-125-5-14-5-26 0-28 4-1 7-18 6-37l-3-35h379 379l-23 53c-13 28-31 77-39 108-12 39-24 59-42 69-13 7-27 22-31 32-7 24-7 362 0 386 7 22 56 52 85 52 15 0 28 14 46 50 14 27 25 52 25 55s-21 5-46 5c-50 0-101 24-110 52-7 24-7 362 0 386 3 10 19 25 35 35 24 14 57 17 201 17 233 0 246-8 241-143l-3-67 53 20c73 29 71 27 68 74-8 103 19 116 241 116s249-13 241-116l-3-41 106-52c58-28 108-51 111-51s5 282 5 626c0 451-3 638-12 666-16 56-81 125-129 139-34 11-39 16-39 41 0 48-16 68-55 68-38 0-55-20-55-64 0-25-2-26-70-26s-70 1-70 26c0 44-17 64-55 64s-55-20-55-64c0-25-2-26-70-26s-70 1-70 26c0 44-17 64-55 64s-55-20-55-64c0-25-2-26-70-26s-70 1-70 26c0 44-17 64-55 64s-55-20-55-64c0-25-2-26-70-26s-70 1-70 26c0 44-17 64-55 64s-55-20-55-64c0-25-2-26-70-26s-70 1-70 26c0 44-17 64-55 64s-55-20-55-64c0-25-2-26-70-26s-70 1-70 26c0 44-17 64-55 64s-55-20-55-64c0-25-2-26-70-26s-70 1-70 26c0 44-17 64-55 64s-55-20-55-64c0-25-2-26-70-26s-70 1-70 26c0 44-17 64-55 64s-55-20-55-64c0-25-2-26-70-26s-70 1-70 26c0 44-17 64-55 64-24 0-38-6-45-19zm16-278c10-7 24-13 31-13 23 0 53 39 53 70v30h70 70v-30c0-32 30-70 55-70s55 38 55 70v30h70 70v-30c0-32 30-70 55-70s55 38 55 70v30h70 70v-30c0-32 30-70 55-70s55 38 55 70v30h70 70v-30c0-32 30-70 55-70s55 38 55 70v30h70 70v-30c0-32 30-70 55-70s55 38 55 70v30h70 70v-30c0-32 30-70 55-70s55 38 55 70v30h70 70v-30c0-32 30-70 55-70s55 38 55 70v30h70 70v-30c0-32 30-70 55-70s55 38 55 70v30h70 70v-30c0-31 30-70 53-70 26 0 50 27 56 65l6 38 28-24c27-23 28-27 30-132l2-107h-1245-1245l2 107c2 105 3 109 30 132l28 24 6-38c4-21 15-44 25-52zm455-400c16-10 32-25 35-35 7-24 7-362 0-386-3-10-19-25-35-35-43-25-359-25-402 0-16 10-32 25-35 35-7 24-7 362 0 385 3 10 18 26 33 35 41 26 361 26 404 1zm600 0c16-10 32-25 35-35 7-24 7-362 0-386-3-10-19-25-35-35-43-25-359-25-402 0-16 10-32 25-35 35-7 24-7 362 0 385 3 10 18 26 33 35 41 26 361 26 404 1zm600 0c16-10 32-25 35-35 7-24 7-362 0-386-3-10-19-25-35-35-43-25-359-25-402 0-16 10-32 25-35 35-7 24-7 362 0 385 3 10 18 26 33 35 41 26 361 26 404 1zm600 0c16-10 32-25 35-35s6-97 6-193-3-183-6-193-19-25-35-35c-43-25-359-25-402 0-16 10-32 25-35 35-7 24-7 362 0 385 3 10 18 26 33 35 41 26 361 26 404 1zm-1200-600c16-10 32-25 35-35 7-24 7-362 0-386-3-10-19-25-35-35-43-25-359-25-402 0-16 10-32 25-35 35-7 24-7 362 0 385 3 10 18 26 33 35 41 26 361 26 404 1z"/><path d="m2390 1545c-191-33-363-142-470-299-35-52-96-188-105-234-29-154-27-217 10-366 25-95 132-258 213-324 26-20 49-39 52-42 19-20 117-73 180-96 70-26 85-28 230-28 149 0 158 1 235 30 196 75 348 225 420 414 36 95 40 118 40 250s-5 164-39 252c-88 234-298 402-556 444-99 16-110 16-210-1zm143-263c10-9 13-25 10-56l-5-44 49-16c61-20 115-64 139-113 23-48 24-70 7-85-31-25-54-16-86 34-47 71-99 92-204 79-6 0-25-13-42-27-24-20-31-34-31-61 0-54 39-85 146-118 137-42 173-65 200-131 19-46 18-76-7-128-23-51-75-89-133-100-38-7-38-8-33-46 5-42-8-63-44-65-28-2-44 22-44 67 0 37-3 41-38 53-55 19-104 55-134 98-44 63-37 107 18 107 23 0 33-8 54-44 18-31 40-51 71-67 122-58 264 30 187 117-12 14-54 33-109 49-162 49-224 104-224 198 0 89 39 143 126 177 48 18 49 19 49 63 0 24 6 51 12 59 15 17 45 17 66 0z"/><path d="m370 1449c-322-41-465-201-305-342 57-50 174-89 322-107 84-10 131-8 278 14 149 23 289 125 289 211s-140 188-289 211c-171 25-191 26-295 13z"/><path d="m0 1016c0-81 139-179 285-202 173-26 205-26 380 0 137 21 261 104 289 194 10 30-1 28-71-11-59-34-67-37-158-61-166-45-408-37-570 19-33 12-119 57-137 73-17 14-18 13-18-12z"/><path d="m0 816c0-81 139-179 285-202 173-26 205-26 380 0 141 22 268 109 291 200 6 26-8 37-21 16-7-12-98-61-135-73-205-67-455-68-645-2-33 12-119 57-137 73-17 14-18 13-18-12z"/><path d="m0 609c0-39 56-104 117-136 201-106 516-106 716 0 57 30 108 82 121 124 8 25-9 40-27 24-28-22-135-70-192-84-166-42-391-40-532 4-75 23-169 65-178 79-11 17-25 11-25-11z"/><path d="m0 409c0-65 102-146 230-182 294-84 673 5 724 170 10 32-9 36-51 10-132-82-353-118-573-93-99 11-287 76-305 106-11 17-25 11-25-11z"/></g></svg>