<svg height="320pt" preserveAspectRatio="xMidYMid meet" viewBox="0 0 320 320" width="320pt" xmlns="http://www.w3.org/2000/svg"><g transform="matrix(.1 0 0 -.1 0 320)"><path d="m197 3166c-87-32-157-101-185-185-17-48-15-139 4-194 21-61 82-129 146-161l52-26h282 283l-22-47c-29-65-29-161 0-225l22-48h-103c-67 0-118-5-149-16-63-21-130-84-163-151-51-104-30-245 46-318l29-28-31-36c-77-87-95-211-45-312 14-30 38-66 52-79l24-23-31-35c-98-112-98-272 0-383l31-36-29-28c-45-43-73-119-74-196 0-83 36-161 100-218 79-70 89-71 526-71h389l75-65c135-118 281-197 449-242 88-24 119-27 260-27 137-1 173 3 250 23 246 64 456 203 606 400 65 86 152 264 181 371 20 75 23 107 22 275 0 177-2 196-27 278-57 184-149 339-277 468-115 115-283 220-417 260-24 6-50 23-58 36l-15 23h112c98 0 120 3 164 24 221 103 230 398 16 524l-47 27-287 3c-159 2-288 5-288 6 0 2 10 25 21 51 17 39 21 62 17 119-7 111-63 196-161 248l-42 23-835 2c-685 2-842 0-873-11zm1657-127c142-35 163-230 33-290-40-18-78-19-832-19-758 0-792 1-832 20-133 60-112 256 31 290 52 13 1551 12 1600-1zm776-465c104-61 108-193 7-268-28-21-35-21-820-24-584-2-803 0-835 9-106 29-147 168-74 250 54 60 32 59 897 56 777-2 791-2 825-23zm-565-434c-60-4-148-17-195-29-152-40-360-153-450-246l-34-35h-390c-359 0-394 2-432 19-130 59-123 239 11 286 33 12 171 14 820 13 429-1 731-4 670-8zm300-160c196-51 374-166 500-323 152-190 225-440 197-676-45-386-294-683-669-798-80-24-103-27-253-27-143-1-176 2-245 22-317 91-566 340-657 657-20 68-23 103-23 240 0 171 9 221 62 353 119 300 401 521 728 572 90 14 268 4 360-20zm-1132-337c-39-61-113-223-113-248 0-13-35-15-247-15-149 0-264 4-288 11-109 30-151 167-77 250 49 55 75 58 434 59h328zm-158-554v-160l-245 3c-224 3-248 5-279 23-56 33-76 68-76 135 0 71 21 105 85 138 42 21 55 22 280 22h235zm44-331c16-55 84-200 110-237 12-16 21-32 21-36 0-3-150-5-332-3-312 3-335 4-367 23-56 33-76 68-76 135 0 71 21 105 85 138 42 21 55 22 296 22h251z"/><path d="m2199 1885c-36-20-46-61-21-94 39-53 122-30 122 33 0 54-54 87-101 61z"/><path d="m2411 1794c-12-15-21-30-21-35 0-27 29-58 83-89 34-19 92-64 129-98 213-201 275-505 157-771-35-77-36-91-6-119 51-48 98-20 140 85 84 209 80 453-13 650-73 158-194 290-341 372-69 38-101 40-128 5z"/><path d="m1438 1480c-14-11-37-48-52-82-102-245-84-509 52-743 67-114 274-298 362-320 33-8 80 27 80 60 0 41-11 54-74 87-37 20-94 65-147 118-70 70-94 102-127 170-60 123-75 200-69 340 5 112 15 153 68 286 16 40 6 78-26 92-34 16-38 15-67-8z"/><path d="m2010 387c-13-7-29-25-34-40-22-61 67-114 113-68 30 30 27 75-5 100-31 24-40 25-74 8z"/></g></svg>