<svg height="320pt" preserveAspectRatio="xMidYMid meet" viewBox="0 0 320 320" width="320pt" xmlns="http://www.w3.org/2000/svg"><g transform="matrix(.1 0 0 -.1 0 320)"><path d="m1440 3197c-3-3-28-7-56-11-169-20-419-100-536-173-21-13-40-23-43-23s-41-23-83-52c-213-142-386-328-510-545-84-148-123-249-172-443-31-120-31-127-35-315-8-318 62-582 224-855 171-289 478-551 781-667 120-46 280-87 392-100 78-9 314-10 388-1 522 61 998 398 1241 879 70 141 139 365 156 511 9 78 10 315 1 383-39 298-159 587-337 810-44 55-175 188-236 240-187 160-483 298-730 341-14 2-37 7-52 10-33 7-387 17-393 11zm327-261c93-14 176-33 253-58 78-25 287-125 310-148 3-3 32-23 64-45 72-48 215-188 277-270 151-200 246-442 265-674 2-36 7-80 10-98 6-41-12-225-32-328-47-234-176-473-354-655-66-67-216-190-233-190-3 0-25-13-49-29-115-77-386-165-551-179-399-33-775 97-1053 365-214 206-347 448-400 730-17 89-23 350-10 423 4 19 11 61 17 93 26 150 112 350 211 495 96 139 298 325 438 401 141 76 323 142 430 156 30 4 77 10 105 13 57 8 246 7 302-2z"/><path d="m1671 2739c-58-35-59-41-58-514v-430l-71-5-72-5-1 210c-2 413-8 605-19 626-15 28-69 59-103 59-16 0-42-10-59-21-58-41-59-50-52-478l5-389-58-12c-32-7-63-16-69-21-16-13-24 113-24 379 0 236-2 249-49 290-37 34-102 26-145-17l-31-31 1-643c1-678 2-724 29-827 80-308 322-469 682-454 102 4 121 6 183 19 14 3 36 7 49 10 153 29 339 157 418 289 20 33 58 93 84 131 156 235 347 535 358 561 25 64-10 154-75 195-28 17-46 20-85 17-71-7-110-43-206-193l-82-127-3 588c-3 587-3 589-25 620-31 44-87 59-132 36-19-9-44-29-55-44-19-26-20-43-19-408 1-307-2-380-12-376-7 2-40 10-74 17l-61 12v434c0 388-2 438-17 463-31 52-101 70-152 39z"/></g></svg>