<svg height="320pt" preserveAspectRatio="xMidYMid meet" viewBox="0 0 320 320" width="320pt" xmlns="http://www.w3.org/2000/svg"><g transform="matrix(.1 0 0 -.1 0 320)"><path d="m813 2970c-73-36-131-97-171-177-33-66-58-180-47-220 4-16 9-45 12-66 12-106 103-226 210-279 54-26 77-32 132-32 128 0 249 83 312 215 28 58 55 189 45 216-4 9-9 37-12 62-13 106-103 229-206 280-52 27-72 31-138 31-65 0-86-4-137-30zm187-165c50-26 92-118 95-205 1-54-34-151-66-182-124-119-274 79-208 275 36 108 105 150 179 112z"/><path d="m1730 2833c-63-93-158-231-211-308-157-226-209-302-377-547-35-51-106-154-158-228-51-74-93-139-93-145-1-32 117-120 147-111 10 4 44 44 75 89s106 154 166 242c61 88 163 237 226 330 64 94 143 208 176 255s102 148 155 225c52 77 113 166 136 198 38 53 40 59 28 82-17 32-99 85-132 85-21 0-42-26-138-167z"/><path d="m1879 2297c-187-53-316-266-279-464 48-256 272-401 477-309 154 70 252 263 222 440-37 225-237 384-420 333zm119-191c86-45 122-199 76-317-59-150-205-140-254 18-55 176 57 363 178 299z"/><path d="m443 1600c-29-12-30-37-2-45 45-14 120-75 257-207 78-76 146-138 150-138s24 11 45 25l37 26-42 37c-24 20-79 73-123 117-97 97-147 139-200 165-52 25-94 32-122 20z"/><path d="m263 1494c-40-20-41-31-5-47 15-6 32-15 37-19 61-46 125-105 263-240l162-160 15 35c8 19 22 43 31 52 17 16 10 24-112 144-152 150-205 194-259 221-60 29-95 33-132 14z"/><path d="m2754 1501c-12-5-31-22-43-37-21-27-21-30-21-565v-539l29-32 29-33h200c198 0 201 0 226 24l26 24v557 557l-26 24c-25 23-30 24-212 26-103 1-197-2-208-6z"/><path d="m78 1397c-100-44-103-223-6-382 27-44 121-171 170-230 39-47 54-66 78-97 14-18 32-39 40-48s35-40 60-70c109-133 201-207 316-254 78-32 235-74 303-81 30-3 58-8 62-11 17-10 175-19 344-18 211 0 202-2 535 139 281 120 357 145 460 151 47 4 96 7 110 9 14 1 33 3 43 4 16 1 17 26 17 386v385l-78 39c-115 58-174 70-332 69-96 0-156-5-206-18-86-22-199-77-250-122l-37-33-336-5c-317-5-339-7-391-28-78-31-155-109-177-179-16-50-16-56 0-106 12-37 31-68 64-101 99-99 138-107 540-106 288 1 325-1 396-19 131-34 129-38-23-57-14-1-190-3-391-3-389-1-395-1-495 50-75 38-135 109-161 191-16 48-35 70-198 229-211 207-269 257-333 291-62 33-91 39-124 25z"/></g></svg>