<svg height="320pt" preserveAspectRatio="xMidYMid meet" viewBox="0 0 320 320" width="320pt" xmlns="http://www.w3.org/2000/svg"><g transform="matrix(.1 0 0 -.1 0 320)"><path d="m275 3142c-116-40-196-109-244-211l-26-56-3-1145c-1-630 0-1154 2-1165 3-12 63-77 133-147 221-217 222-218 262-218 46 1 47 2 227 180l150 150 170-165c93-90 181-169 195-175 42-18 75 5 253 180l162 159 104-102 105-102 3 139 3 140-88 83c-48 46-92 83-98 84-38 4-52 3-68-7-18-12-296-273-330-311l-20-23-156 155c-174 173-192 188-230 189-35 2-52-12-224-180-82-80-152-144-157-142-4 2-51 45-104 95l-96 93v1088c1 1079 1 1088 21 1130 46 92 171 116 270 50 40-26 62-82 57-143-7-87-60-138-158-150-50-7-86-29-106-66-18-35-18-43 2-85 32-67-20-64 958-61l886 2v-457-458h100 100v460 460l55 27c117 55 200 162 225 289 10 51 9 71-4 124-34 131-104 216-224 273l-67 32-995 2c-922 2-999 1-1045-15zm2015-205c60-22 79-36 100-77 40-79 18-171-53-218l-41-27-793-3-794-3 15 28c8 16 20 56 26 90 13 65 3 136-27 196l-14 27h773c593 0 781-3 808-13z"/><path d="m592 2127c-20-21-22-34-22-139 0-151-3-148 154-148 64 0 126 5 137 10 17 10 19 22 19 139 0 165 4 161-152 161-107 0-116-2-136-23z"/><path d="m997 2132c-14-15-17-41-17-143 0-84 4-129 12-137 9-9 100-12 349-12 404 0 369-14 369 151 0 92-3 110-21 133l-20 26h-328c-305 0-329-1-344-18z"/><path d="m587 1712c-14-15-17-40-17-126 0-153-1-152 159-148 71 1 130 7 138 14 18 14 19 248 1 266-8 8-53 12-138 12-110 0-129-2-143-18z"/><path d="m992 1718c-13-13-18-232-6-262 5-14 46-16 355-16h349l10 26c6 14 10 69 10 122 0 155 33 142-369 142-249 0-340-3-349-12z"/><path d="m2320 1377c-3-3-34-7-70-10-159-13-278-65-315-137-21-42-22-717-1-758 45-87 179-138 394-151 20-1 22-6 22-51 0-62 19-100 65-135 39-30 157-73 210-77 19-1 35-5 35-9s52-7 115-6c63 0 115 3 115 6s12 7 28 8c28 3 67 10 67 13 0 1 11 3 24 6 47 9 146 69 169 104 23 34 23 40 20 232-3 181-5 199-24 224-22 30-124 91-164 98-14 2-25 5-25 6 0 5-138 21-202 23-10 0-13 52-13 222 0 214-1 223-23 256-38 57-178 118-287 124-14 1-50 5-80 9-31 4-58 5-60 3zm-249-343c155-55 426-54 549 1 47 21 70 14 70-19 0-29-21-45-95-74-65-25-127-34-250-34-189-1-345 47-345 105 0 41 8 44 71 21zm34-179c41-11 53-14 105-21 52-8 233-9 270-1 14 3 43 8 65 12 22 5 59 16 82 26 35 15 43 16 53 4 66-80-214-162-445-131-86 11-108 17-172 48-50 23-63 34-63 52 0 35 18 47 49 32 14-7 40-17 56-21zm-30-154c28-10 70-22 95-27 25-4 48-9 53-10 4-1 42-2 86-3l78-1-21-45-21-45-79 5c-43 3-86 10-96 15s-20 7-22 4c-8-7-110 35-130 53-21 19-23 44-6 61 7 7 12 12 13 12 0 0 23-8 50-19zm6-170c75-25 143-37 247-40 19-1 22-6 22-41 0-38-1-40-32-41-74-2-122 4-184 21-109 31-147 62-130 106 7 18 12 18 77-5zm412-105c51-23 180-43 285-44 99 0 180 12 273 43 50 17 53 17 65 0 10-13 10-23 3-37-12-23-95-62-154-73-22-4-51-9-65-12-35-8-217-7-265 1-122 21-205 61-205 99 0 40 14 45 63 23zm42-181c79-21 139-28 245-27 125 0 174 6 249 32 34 12 68 19 76 16 20-7 19-40-2-58-23-20-83-50-83-42 0 4-6 2-12-4-14-11-47-18-122-28-207-26-456 31-456 104 0 31 20 43 49 28 14-7 40-17 56-21z"/><path d="m587 1309c-14-15-17-41-17-132 0-156 1-157 159-157 154 0 151-3 151 154 0 64-5 126-10 136-9 17-23 19-138 19s-130-2-145-20z"/><path d="m990 1310c-5-10-10-72-10-138 0-102 3-121 18-135 17-15 55-17 343-17 178 0 329 4 335 8 25 17 34 56 34 154 0 161 34 147-370 147-324 0-340 0-350-19z"/></g></svg>