<svg height="320pt" preserveAspectRatio="xMidYMid meet" viewBox="0 0 320 320" width="320pt" xmlns="http://www.w3.org/2000/svg"><g transform="matrix(.1 0 0 -.1 0 320)"><path d="m1453 3178c-12-14-25-50-32-88-27-153-28-153-77-174-44-18-46-18-67 1-12 11-33 27-47 36s-47 33-75 52c-27 19-58 35-69 35-10 0-62-43-117-97-123-120-123-121-34-248l65-93-21-46c-11-25-23-46-28-46-28 0-200-33-218-42-36-18-45-57-41-188 4-150 2-149 156-174l110-19 17-44c9-24 15-49 12-56s-32-50-66-96c-38-53-61-94-61-111 0-36 185-220 221-220 13 0 66 29 117 65l93 65 48-16 47-17 18-111c25-155 24-154 194-158 133-3 134-3 156 23 16 19 27 54 40 135 10 60 18 109 19 110 1 0 22 8 46 17l44 16 81-58c113-81 122-85 156-71 44 18 200 183 200 212 0 13-29 65-70 120l-69 97 20 46c11 25 25 45 32 45s59 9 116 19c141 25 141 24 141 193 0 166 0 167-157 193l-112 19-15 41c-9 22-16 44-16 47 0 4 29 48 65 99 41 57 65 102 65 118 0 37-180 221-216 221-15 0-64-27-119-65-51-36-97-65-102-65-8 0-68 26-80 35-2 1-12 53-23 116-26 152-23 149-194 149-125 0-134-1-153-22zm206-200c20-132 29-150 86-170 28-10 73-30 100-43 28-14 62-25 76-25 16 0 58 23 108 59l81 59 30-30 30-30-60-83c-68-94-71-113-36-183 13-26 29-66 35-88 17-62 43-80 139-93 112-16 112-17 112-61 0-43 7-40-125-61-89-14-111-29-126-81-6-23-24-69-41-101-18-36-27-68-24-81 3-11 30-55 61-98 30-42 55-80 55-84 0-11-42-54-52-54-4 0-42 25-84 55s-85 57-95 60c-12 4-53-8-103-29-46-20-90-36-98-36-33 0-56-44-72-141-9-53-16-98-16-100 0-9-76-3-81 6-4 6-12 50-20 98-15 104-31 130-91 145-24 6-65 23-91 37-27 14-58 25-71 25-12 0-61-26-108-59l-86-58-30 30-30 30 54 73c75 102 78 110 47 175-14 30-31 75-39 100-19 63-41 79-131 95-132 24-123 20-123 63 0 44-6 41 125 61 90 14 111 29 129 88 7 27 26 72 40 100s26 58 26 66-27 55-60 103l-59 88 28 29 29 28 88-61c48-33 95-61 105-61 9 0 43 13 75 29 33 16 78 34 100 40 51 14 66 42 85 159l13 82h42 42z"/><path d="m1453 2611c-79-38-137-97-175-177-28-59-30-71-26-152 4-105 33-175 97-239 66-66 140-97 236-101 105-5 174 20 250 89 75 70 108 139 113 243 6 114-20 180-102 262-77 77-143 104-254 104-64 0-87-5-139-29zm230-132c37-19 88-72 103-108 19-45 18-124-2-164-39-78-102-117-186-117-118 0-200 83-200 201 0 119 81 199 200 199 35 0 73-5 85-11z"/><path d="m795 1394c-125-17-248-56-405-127-25-11-115-51-199-89-85-37-163-76-173-85s-18-30-18-50c0-63 60-91 126-59 28 14 102 48 234 108 294 134 426 166 598 147 134-15 186-41 296-147 78-75 101-92 161-114 144-53 283-77 445-78 159 0 220-29 220-102 0-24-7-45-19-57-38-38-91-43-381-38-254 4-284 6-400 32-186 41-185 41-214 11-15-14-26-37-26-51 0-46 38-71 141-94 197-43 227-46 539-46h305l55 26c30 14 154 91 275 171 501 329 514 337 605 345 50 5 60 3 79-16 47-47-1-106-187-228-81-52-185-121-232-153-132-89-686-441-777-493-94-55-158-69-248-56-48 7-134 46-430 195-405 202-430 211-520 181-26-9-102-51-170-94-147-93-168-122-124-177 34-43 65-35 202 52 101 64 129 77 163 77 33 0 103-31 370-167 402-203 451-222 589-216 86 3 109 8 165 34 78 37 263 152 649 401 599 389 645 423 692 515 30 60 24 151-15 207-55 79-168 111-279 77-44-13-46-13-69 11-57 61-188 95-273 71-49-13-50-13-98 19-26 18-65 37-85 43-61 17-167 12-233-10-49-17-229-123-479-282-23-15-30-15-90 1-102 28-130 44-212 124-122 119-244 169-443 180-44 3-93 3-110 1zm1543-163c10-6-8-22-65-56-43-27-112-70-154-96-71-44-78-47-115-39-21 5-61 10-89 10-42 1-47 2-30 12 11 6 71 42 134 81 62 38 132 76 155 83 47 15 145 18 164 5zm319-62 45-12-234-153c-128-85-236-154-240-154-5 0-8 6-8 13s-9 29-20 49c-16 31-17 37-4 42 8 3 80 47 160 97 126 79 218 127 247 129 5 0 29-5 54-11z"/></g></svg>