<svg height="320pt" preserveAspectRatio="xMidYMid meet" viewBox="0 0 320 320" width="320pt" xmlns="http://www.w3.org/2000/svg"><g transform="matrix(.1 0 0 -.1 0 320)"><path d="m293 3179c-74-29-146-97-185-177l-33-67v-1335-1335l29-58c36-71 108-140 184-175l57-27h660 660l57 27c74 34 146 107 184 183 29 60 29 61 29 245 0 102 1 291 3 420l3 235 132 106 132 106 145 6c83 4 171 13 205 22 320 87 561 410 570 767 3 105-20 217-68 336-64 157-206 318-343 389-144 75-185 84-373 84-91 0-223 3-293 6l-126 5-7 27c-9 37-71 125-108 154-18 13-55 36-84 51l-52 26-663-1c-638 0-665-1-715-20zm1402-131c42-23 95-86 95-112 0-3-30-5-67-5-106 1-252-44-349-108-18-11-125-14-593-16l-571-2v59c0 110 54 181 148 194 26 4 331 7 677 7 567 0 633-2 660-17zm861-270c216-64 386-270 423-513 13-83 5-258-14-330-54-202-214-379-394-436-52-16-99-22-225-24-189-5-143 18-451-228l-220-176-5 200c-6 227-1 215-94 245-145 47-288 177-361 329-52 108-65 161-69 280-9 276 120 503 349 616 106 52 138 55 615 53 322-1 404-4 446-16zm-1392-158c-121-168-180-401-149-581 47-269 215-501 448-619l70-36 2-244 3-244 28-23c16-13 33-23 38-23s49 32 97 70c49 39 91 70 94 70s5-40 5-90v-90h-795-795v928 927h493 494zm636-2142c-1-165-4-197-20-227-23-46-66-85-108-99-23-8-235-12-681-12h-648l-48 32c-80 55-85 72-85 300v198h795 796z"/><path d="m1949 2329c-7-5-39-7-70-3-83 9-95-7-104-143-8-117 0-245 18-283 16-34 75-40 102-10 15 16 19 43 24 146 6 116 8 127 30 145 13 10 32 19 42 19 36 0 47-38 48-170 2-104 5-128 19-141 29-28 57-31 84-9 24 19 26 25 30 145 3 110 6 128 24 146 12 11 33 22 48 23 40 5 54-25 56-119 4-186 10-205 65-205 59 0 68 23 68 167 0 74-6 146-13 170-16 54-59 98-113 115-54 18-96 15-147-10-41-20-42-20-84-1-53 23-107 31-127 18z"/><path d="m2605 2321c-48-22-101-79-110-119-15-69 43-132 153-167 28-10 52-21 52-26 0-17-55-9-108 16-39 18-58 22-71 15-26-13-53-58-45-73 32-57 114-99 189-98 62 1 120 38 154 100 23 42 23 43 5 82-23 52-61 83-134 110-33 12-60 25-60 28 0 16 54 9 77-9 33-26 67-25 93 2 23 25 25 40 9 71-18 32-50 56-94 67-22 6-47 13-55 15-8 3-33-4-55-14z"/><path d="m1475 2312c-51-32-95-89-95-125 0-65 62-125 163-157 20-6 37-16 37-21 0-17-51-9-102 17-50 26-51 26-76 7-40-30-46-70-16-100 36-36 110-65 166-65 83 0 168 74 168 147 0 65-54 116-158 150-28 9-50 21-46 26 8 14 31 11 74-11 22-11 48-20 59-20 29 0 51 27 51 64 0 80-145 137-225 88z"/><path d="m930 558c-126-64-138-220-23-301 59-42 118-47 171-13 111 70 133 181 54 268-64 70-125 84-202 46z"/></g></svg>