<svg height="320pt" preserveAspectRatio="xMidYMid meet" viewBox="0 0 320 320" width="320pt" xmlns="http://www.w3.org/2000/svg"><g transform="matrix(.1 0 0 -.1 0 320)"><path d="m173 2688c-2-5-11-8-19-8-34 0-102-60-128-112l-26-52v-916-916l26-52c25-51 94-112 127-112 7 0 16-2 19-5 11-11 1474-6 1502 5 15 5 30 10 33 10 20 0 77 59 98 100l25 49v921 921l-25 49c-21 41-78 100-98 100-3 0-18 5-33 10-32 12-1493 19-1501 8zm1498-167c18-22 19-52 19-923v-899l-25-25-24-24-732 2-731 3-19 23c-18 23-19 54-19 919 0 608 4 901 11 914 6 11 20 24 31 28 12 4 347 7 746 7l724-1z"/><path d="m318 2089c-21-12-24-49-6-67 9-9 157-12 604-12 525 0 594 2 608 16 22 21 20 40-6 58-20 14-93 16-603 16-375-1-586-4-597-11z"/><path d="m318 1909c-21-12-24-49-6-67 9-9 157-12 604-12 525 0 594 2 608 16 20 19 20 24 0 52l-15 22h-587c-380-1-593-4-604-11z"/><path d="m312 1721c-8-5-12-21-10-37l3-29 607-3c599-2 607-2 618 18 8 14 8 26 0 40-11 20-21 20-608 20-328 0-603-4-610-9z"/><path d="m304 1523c-14-55-20-54 380-54 315 0 372 3 385 15 13 13 13 19 1 41l-13 25h-373-374z"/><path d="m313 1178c-22-29-23-38-3-58 19-19 32-20 303-20 240 0 286 2 305 16 26 18 28 37 6 58-13 14-55 16-308 16-223 0-296-3-303-12z"/><path d="m2070 2486c-109-31-106-27-102-127l3-86 57 23c31 12 73 25 92 28s58 10 85 15c28 5 53 7 57 3s8-25 9-47c2-30-9-62-44-134-26-51-47-98-47-102 0-5 16-9 35-9h35v-232-233l75-129c58-100 72-132 64-142-6-8-17-14-25-14-31 0-19-20 34-56 31-22 62-41 67-43 6-2 24-15 41-28 37-27 54-30 48-5-7 31-13 106-13 170l-1 64-35-20-34-21-71 122-70 122v222 223h28c16 0 31 3 34 6 4 3-15 49-42 102-41 85-47 103-43 145 5 47 5 47 37 42 17-3 42-7 56-9 81-13 208-57 239-82 2-2-4-15-14-30-15-23-15-28-2-41 13-14 16-13 26 3 26 47 26 47 69 20 74-46 209-197 196-218-3-5-17-13-30-18-28-11-30-22-9-40 13-10 19-10 33 4 10 9 23 16 29 16 22 0 81-175 89-265l6-65h-36c-29 0-36-4-36-20s7-20 36-20h36l-6-62c-8-89-65-268-85-268-4 0-17 7-29 16-18 12-26 13-37 4-21-18-18-29 9-40 13-5 27-13 30-18 13-21-121-171-195-218-44-27-43-27-70 20-10 16-13 17-26 3-13-13-13-18 2-41 10-15 16-28 14-30-14-10-89-45-89-41 0 3-12-1-27-8-30-15-76-26-175-41l-38-6v40c0 33-3 40-20 40-16 0-20-7-20-34 0-19-3-37-7-39-15-9-178 24-235 48l-58 23v-94-93l38-10c20-6 62-18 92-26 64-18 343-15 397 4 56 19 97 32 114 36 23 5 167 83 203 109 63 46 170 155 213 214 54 76 127 228 142 297 6 28 15 70 20 95 10 45 8 241-4 313-30 190-190 442-356 561-45 33-193 116-216 121-10 3-43 12-73 21-94 28-151 34-275 33-88-1-140-8-195-23z"/></g></svg>