<svg height="250pt" preserveAspectRatio="xMidYMid meet" viewBox="0 0 250 250" width="250pt" xmlns="http://www.w3.org/2000/svg" fill="#fec803"><path d="m639 2477c-111-59-139-200-57-293 64-73 26-69 680-69h588l-909-910c-667-668-914-920-925-949-22-52-20-93 7-146 33-64 103-110 169-110 29 0 64 8 86 19 21 11 433 416 937 920l900 901 5-594 5-594 31-38c49-61 78-77 143-82 52-4 67-1 105 22 28 16 56 44 71 70l25 43v849c0 849 0 849-21 884-12 19-31 43-43 53-55 48-36 47-921 47h-832z" transform="matrix(.1 0 0 -.1 0 250)"/></svg>