<svg height="320pt" preserveAspectRatio="xMidYMid meet" viewBox="0 0 320 320" width="320pt" xmlns="http://www.w3.org/2000/svg"><g transform="matrix(.1 0 0 -.1 0 320)"><path d="m220 2732c0-5-19-14-41-21-49-15-125-87-154-146-19-39-20-67-23-951-2-818 0-915 14-958 22-63 106-150 162-167 23-7 42-16 42-21 0-4 621-8 1380-8s1380 4 1380 8c0 5 19 14 41 21 49 15 125 87 154 146 19 39 20 65 20 965 0 894-1 926-19 964-30 59-107 133-155 147-22 7-41 16-41 21 0 4-621 8-1380 8s-1380-4-1380-8zm2757-225 23-23v-881c0-484-3-888-6-897s-15-21-25-26c-11-7-507-10-1371-10h-1352l-23 23-23 23v881c0 484 3 888 6 897 16 42-5 41 1401 39l1347-3z"/><path d="m434 2160c-51-20-54-38-54-280v-226l31-30 30-29 299-3c341-3 358 0 385 64 12 28 15 78 15 230 0 175-2 196-20 227-11 19-32 39-46 45-30 14-607 16-640 2zm506-280v-90h-185-185v90 90h185 185z"/><path d="m430 1408c-29-11-50-49-50-91 0-29 7-46 29-68l29-29h167c211 0 245 14 245 103 0 41-38 87-72 87-13 0-92 1-176 3-84 1-162-1-172-5z"/><path d="m1110 1412c-32-5-47-18-67-55-13-26-13-36-2-69 20-62 42-68 236-68h168l33 31c22 20 32 39 32 59 0 37-30 89-55 96-23 6-308 11-345 6z"/><path d="m1783 1413c-5-1-20-4-35-7-32-7-58-50-58-95 0-21 10-39 33-60l32-31h168c192 0 218 7 237 65 9 28 9 43 0 65-24 59-34 62-209 64-89 0-164 0-168-1z"/><path d="m2418 1408c-44-9-68-41-68-92 0-33 6-48 26-67 25-23 31-24 205-27l179-3 30 30c38 38 41 92 7 135l-23 28-161 2c-89 0-176-2-195-6z"/><path d="m424 1028c-45-21-58-104-24-148l19-25 367-5c236-3 375-1 388 5 11 6 29 25 39 43 17 29 18 39 8 73-21 69-23 69-423 68-221 0-361-4-374-11z"/></g></svg>