<svg height="320pt" preserveAspectRatio="xMidYMid meet" viewBox="0 0 320 320" width="320pt" xmlns="http://www.w3.org/2000/svg" class="icon"><path d="m1516 3130c-46-30-52-38-160-263-62-128-121-250-131-272s-51-109-90-193l-72-153-64-4c-35-2-244-4-464-6-383-1-402-2-443-23-24-11-53-34-65-50-24-33-34-118-19-157 12-29 142-194 426-534 109-132 217-262 239-288l39-48-36-192c-21-106-42-212-47-237s-28-143-50-263-42-224-45-232c-10-25 42-121 81-151 60-45 118-40 230 20 50 27 119 64 155 84 36 19 88 47 115 62 28 16 70 39 95 52s120 65 211 116c92 51 172 92 178 92 7 0 128-64 269-141 141-78 280-154 307-169 28-15 86-47 130-72 110-61 153-76 202-73 58 3 109 44 137 108l22 49-27 147c-15 80-37 198-49 261s-25 133-30 155-23 116-41 209c-26 138-30 172-20 188 7 11 101 126 210 256 305 366 463 564 478 599 32 77 3 160-70 204l-42 25-395 2c-217 1-429 5-472 8l-76 6-33 72c-123 268-269 577-322 680-42 83-57 103-96 127-60 38-103 38-165-1zm239-513c82-177 177-376 210-442l60-120 60-1c33 0 251-1 483-3 330-1 422-5 414-14-26-34-360-440-520-631-116-140-181-225-178-235 10-31 176-906 176-924 0-6-5-5-12 0-7 6-62 36-123 68-60 32-114 61-120 65-5 4-55 31-110 60-55 30-122 66-148 82-26 15-49 28-51 28s-69 36-147 81l-144 80-60-30c-33-16-157-83-275-149-451-248-520-285-526-279-7 7 97 571 159 868l14 66-70 84c-262 314-637 769-637 773 0 3 190 6 423 7 232 2 449 3 482 3l60 1 35 70c20 39 114 238 210 442 96 205 177 373 180 373s72-145 155-323z" transform="matrix(.1 0 0 -.1 0 320)"/></svg>